<svg width="61" height="23" viewBox="0 0 61 23" fill="none" xmlns="http://www.w3.org/2000/svg">
<path d="M52.3693 10.5284C52.3693 9.97609 51.9216 9.52837 51.3693 9.52837C50.817 9.52837 50.3693 9.97609 50.3693 10.5284H52.3693ZM43.8551 8.88464L44.8483 8.76876L43.8551 8.88464ZM59.588 10.8023L60.588 10.8023L59.588 10.8023ZM46.0512 21.9612V20.9612V21.9612ZM50.3693 10.5284C50.3693 11.2541 50.0855 11.6747 49.7192 11.923C49.3164 12.196 48.7039 12.3294 47.9932 12.2184C46.5881 11.9992 45.0935 10.8704 44.8483 8.76876L42.8618 9.00052C43.2215 12.0837 45.484 13.851 47.6848 14.1945C48.7771 14.365 49.9296 14.1964 50.8413 13.5786C51.7894 12.936 52.3693 11.8769 52.3693 10.5284H50.3693ZM44.8483 8.76876C44.6074 6.70341 45.2332 5.14724 46.3475 4.09276C47.4847 3.01672 49.2319 2.37044 51.3693 2.37044V0.370436C48.8493 0.370436 46.5655 1.13307 44.9729 2.64003C43.3575 4.16857 42.5548 6.3695 42.8618 9.00052L44.8483 8.76876ZM51.3693 2.37044C53.3053 2.37044 55.0889 3.04833 56.3894 4.39125C57.6867 5.73096 58.5881 7.8214 58.588 10.8023L60.588 10.8023C60.5881 7.40781 59.5521 4.78231 57.8261 2.99993C56.1032 1.22077 53.7774 0.370436 51.3693 0.370436V2.37044ZM58.588 10.8023C58.588 13.8117 57.9002 16.2862 56.1202 18.025C54.3326 19.7712 51.254 20.9612 46.0512 20.9612V22.9612C51.5134 22.9612 55.2032 21.7165 57.5177 19.4556C59.8398 17.1873 60.588 14.0823 60.588 10.8023L58.588 10.8023ZM46.0512 20.9612C40.1259 20.9612 33.5684 20.9612 -0.000114441 20.9722L0.000541687 22.9722C33.569 22.9612 40.1263 22.9612 46.0512 22.9612V20.9612Z" fill="#341F0F"/>
</svg>
