<svg width="62" height="23" viewBox="0 0 62 23" fill="none" xmlns="http://www.w3.org/2000/svg">
<path d="M8.08241 10.6388C8.08241 10.0865 8.53012 9.63879 9.08241 9.63879C9.63469 9.63879 10.0824 10.0865 10.0824 10.6388H8.08241ZM16.7318 8.54759L15.7325 8.5106L16.7318 8.54759ZM14.2268 21.9721L14.2268 20.9721L14.2268 21.9721ZM10.0824 10.6388C10.0824 11.3029 10.364 11.7106 10.7736 11.9635C11.2238 12.2413 11.9007 12.3669 12.6573 12.2348C14.1391 11.9762 15.6483 10.785 15.7325 8.5106L17.7311 8.58458C17.6077 11.9198 15.2921 13.8051 13.0012 14.2051C11.8714 14.4023 10.6749 14.2528 9.72321 13.6654C8.73105 13.0531 8.08241 12.0055 8.08241 10.6388H10.0824ZM15.7325 8.5106C15.7953 6.8137 15.3682 5.27832 14.3813 4.17692C13.4091 3.09199 11.7635 2.28341 9.08241 2.28341V0.283411C12.1796 0.283411 14.4281 1.23233 15.8707 2.8422C17.2986 4.4356 17.8071 6.5323 17.7311 8.58458L15.7325 8.5106ZM9.08241 2.28341C6.55699 2.28341 4.83041 3.44712 3.70133 5.03127C2.54653 6.6515 2.02533 8.71208 2.02533 10.366H0.0253296C0.0253296 8.35632 0.643507 5.87564 2.07267 3.87047C3.52754 1.82923 5.8295 0.283411 9.08241 0.283411V2.28341ZM2.02533 10.366C2.02533 12.5517 2.28167 15.1666 3.84881 17.236C5.3745 19.2507 8.32389 20.9721 14.2268 20.9721L14.2268 22.9721C7.93118 22.9721 4.27982 21.118 2.25441 18.4434C0.270448 15.8236 0.0253296 12.6355 0.0253296 10.366H2.02533ZM14.2268 20.9721C24.9636 20.9721 28.0566 20.9723 61.45 20.9721L61.45 22.9721C28.0566 22.9723 24.9636 22.9721 14.2268 22.9721L14.2268 20.9721Z" fill="#341F0F"/>
</svg>
