<svg width="1440" height="222" viewBox="0 0 1440 222" fill="none" xmlns="http://www.w3.org/2000/svg">
<path d="M673.191 45.6601C667.133 40.5866 677.518 42.3261 675.571 38.9921C673.624 35.6581 668.864 38.1224 669.585 33.6288C670.306 29.1351 673.407 29.1351 677.23 29.57C681.052 30.0049 680.331 27.2507 679.682 24.8589C680.007 24.4765 680.411 24.1695 680.865 23.9589C681.32 23.7484 681.814 23.6393 682.315 23.6393C682.815 23.6393 683.309 23.7484 683.764 23.9589C684.218 24.1695 684.622 24.4765 684.947 24.8589C686.029 28.1929 690.356 22.5396 690.861 26.9608C691.366 31.3819 687.327 33.6287 683.216 36.4554C686.75 37.76 689.996 35.8031 692.592 37.8325C694.034 39.0646 698.001 37.8325 695.765 42.1811C693.53 46.5298 698.29 45.8775 700.165 46.6023C707.377 49.5014 703.482 52.9803 700.165 55.5171C695.693 59.4309 695.333 59.4309 700.598 62.7648C703.987 64.7217 704.492 70.0126 709.469 70.0126C711.704 70.0126 713.796 73.6365 716.248 68.9979C718.7 64.3594 716.248 64.1419 714.517 62.33C713.665 61.699 712.746 61.1643 711.777 60.7355C715.126 59.4045 717.966 57.0359 719.885 53.9734C721.804 50.9109 722.703 47.3135 722.451 43.7032C721.802 40.2967 725.552 40.3692 727.427 39.3545C729.302 38.3398 731.322 38.7747 732.187 42.1087C733.702 48.1968 734.784 55.2271 744.015 54.6473C743.006 58.4886 736.154 61.8951 744.015 64.8667C746.756 64.2869 749.929 61.8951 751.228 66.8236C747.044 69.5778 746.395 76.6081 739.255 75.6659C742.573 81.6091 746.9 76.6081 751.155 77.9852L743.943 84.3632C747.189 87.0449 751.155 84.8706 754.473 86.1027C754.726 86.4125 754.909 86.774 755.008 87.1621C755.108 87.5501 755.122 87.9554 755.05 88.3495C755.05 90.089 751.877 91.5385 753.319 93.3505C754.762 95.1624 757.791 93.8578 760.026 93.3505C769.042 88.9293 769.691 89.0743 773.225 96.467C773.334 97.0173 773.334 97.5837 773.225 98.134C772.504 100.526 773.658 100.743 775.533 100.163C779.067 100.163 782.24 99.7285 783.178 94.8725C784.115 90.0165 788.515 91.9734 792.842 91.1037C787.072 87.9871 784.332 84.7981 790.534 80.8118C789.02 76.6806 791.255 72.9117 794.789 74.3613C801.208 76.9705 803.805 74.3613 806.545 69.4328C807.195 68.2732 808.853 67.9108 810.152 67.2585C810.89 67.1138 811.649 67.1138 812.387 67.2585C812.864 67.4107 813.305 67.6571 813.686 67.9832C813.686 67.9832 814.263 67.6209 814.263 67.4759C815.489 64.9392 816.57 62.4024 819.672 61.6777C823.783 58.851 827.677 61.2428 831.644 62.1125C835.683 64.6493 839.289 62.6199 843.112 61.1703C844.544 60.4159 846.123 59.9851 847.739 59.9078C849.355 59.8306 850.967 60.1089 852.465 60.7232C853.962 61.3376 855.308 62.2731 856.408 63.4645C857.508 64.6559 858.336 66.0744 858.834 67.6209C858.834 62.9823 862.296 62.0401 866.047 61.1703C868.048 60.5732 870.001 59.822 871.888 58.9235C873.333 57.938 875.047 57.4311 876.793 57.474C878.269 57.0285 879.852 57.1016 881.281 57.6813C882.71 58.261 883.9 59.3127 884.654 60.663C886.601 64.7217 882.202 70.52 887.972 73.6365C888.638 74.0036 889.206 74.5255 889.631 75.1586C889.185 74.6631 888.703 74.2027 888.188 73.7815C881.841 69.8677 888.188 68.1282 889.558 65.4465L891.217 63.7795C893.02 62.33 896.194 62.33 896.554 59.141C896.895 57.6576 897.159 56.1578 897.348 54.6473C903.19 48.9216 901.963 40.1518 906.579 33.7737C908.887 32.6865 910.69 30.5847 913.792 30.5847C915.234 30.5847 917.037 31.237 917.398 32.5416C920.715 43.2683 931.822 48.8491 935.573 58.6336C938.028 67.3946 939.622 76.3765 940.333 85.4504C939.147 85.9212 938.138 86.7561 937.452 87.8363C936.766 88.9164 936.436 90.1867 936.51 91.4661C937.304 88.7119 937.736 85.8853 941.054 85.233C945.237 80.7393 949.636 77.4778 955.478 83.1311C956.776 90.3789 964.999 93.7129 965.431 102.193C965.431 106.034 971.417 102.193 974.591 101.83C976.899 99.946 977.764 96.612 981.01 95.7423C982.481 95.3108 984.032 95.2369 985.537 95.5268C987.042 95.8166 988.457 96.4619 989.664 97.4093C989.664 97.4093 990.097 97.4093 989.664 97.4093C989.639 96.999 989.639 96.5874 989.664 96.1771C989.664 92.7707 987.933 88.9293 991.828 86.61C999.04 87.4073 999.04 87.3348 997.165 80.7393C996.804 79.0724 997.814 78.6375 998.535 78.1301C1004.52 73.854 1004.45 66.8236 1006.61 60.663C1010.08 61.0979 1009.14 64.2869 1009.43 65.9539C1010.08 69.7227 1011.08 75.1585 1013.97 75.0861C1016.85 75.0136 1023.63 71.1723 1023.85 68.5631C1024.5 60.518 1030.13 62.4749 1035.32 61.8226C1032.72 58.2712 1027.17 57.474 1028.61 52.473C1029.19 50.5161 1031.64 51.8932 1033.23 51.5308C1034.81 51.1684 1035.82 47.3995 1036.9 51.5308C1037.99 55.662 1040.8 55.0822 1043.76 55.0822C1044.48 55.002 1045.22 55.1552 1045.85 55.5198C1046.49 55.8844 1046.99 56.4416 1047.29 57.1116C1051.04 62.8373 1039.5 62.2575 1043.76 65.0841C1050.97 69.9401 1042.1 69.9401 1042.24 72.3319L1054.07 74.1439V74.7237V73.9989C1054.57 71.1723 1059.77 71.0998 1058.18 66.7511C1058.36 64.2205 1059.38 61.8225 1061.07 59.9382C1063.08 57.474 1065.18 55.2272 1068.28 57.9088C1071.38 60.5905 1069 64.4318 1066.69 67.4034C1069.72 68.2007 1072.32 68.9255 1074.91 69.5053C1077.51 70.0851 1081.33 73.1292 1083.78 68.4181C1086.24 63.7071 1081.55 63.0547 1080.18 60.518C1087.39 58.5611 1087.39 50.1537 1092.37 46.4573C1084.22 42.5435 1094.75 40.949 1093.52 37.3251C1092.58 35.365 1092.2 33.1791 1092.43 31.0146C1092.66 28.85 1093.49 26.7931 1094.82 25.0764C1100.16 35.5132 1095.18 51.0234 1110.83 55.4446C1110.47 57.9088 1105.85 59.5758 1108.09 63.1997C1109.6 65.519 1111.7 63.997 1113.57 63.7795C1118.19 63.1997 1117.61 59.5758 1118.69 56.5317C1119.77 53.4877 1115.52 47.1096 1121.72 44.5729C1124.61 43.7032 1125.54 46.0949 1127.06 47.6895C1128.25 48.6339 1129.62 49.3326 1131.08 49.7455C1132.54 50.1584 1134.07 50.2774 1135.58 50.0956C1137.08 49.9138 1138.54 49.4348 1139.86 48.6861C1141.19 47.9374 1142.35 46.9337 1143.29 45.7326C1145.45 42.4711 1141.91 43.0509 1141.12 41.7463C1139.46 38.8471 1140.18 36.9627 1143.93 37.1077C1145.81 36.093 1150.35 37.1077 1147.47 32.4691C1146.6 29.4975 1146.6 29.4975 1150.93 26.0186C1149.15 25.3574 1147.42 24.5828 1145.74 23.6993C1141.41 21.0901 1145.74 16.4515 1145.74 16.4515C1156.48 19.4956 1151.8 9.20372 1155.26 5.6523C1156.2 4.78257 1152.44 1.4486 1156.7 1.73851C1158.94 1.73851 1159.73 3.84036 1159.58 6.23213C1159.44 8.6239 1158.86 12.6827 1164.49 12.0304C1167.23 12.0304 1166.36 15.2194 1165.21 17.4662C1164.06 19.713 1160.31 20.9451 1156.48 23.6993C1161.82 23.6993 1165.57 22.6121 1168.74 25.0039C1169.61 25.6562 1171.92 25.0039 1170.62 27.2507C1168.6 31.1645 1171.34 32.1792 1174.3 33.1939C1181.01 35.4407 1180.36 38.7022 1175.52 42.6885C1172.64 44.9353 1167.81 47.1096 1175.52 49.9363C1181.73 52.0381 1176.32 58.4162 1178.84 62.0401C1181.37 65.664 1189.95 64.2144 1186.49 72.1145C1186.75 73.455 1186.52 74.8453 1185.84 76.0283C1187.06 75.0136 1187.5 73.2017 1189.08 72.4044C1191.04 72.361 1192.95 71.8118 1194.64 70.8099C1199.76 67.6208 1201.85 65.0117 1194.64 61.7501C1193.58 61.0722 1192.61 60.2692 1191.75 59.3584C1193.48 56.0969 1201.63 56.5317 1197.52 49.8638C1199.97 48.9216 1200.05 43.5582 1204.73 46.0949C1204.01 52.473 1203.44 58.5611 1211.95 60.5905C1213.82 60.9529 1214.61 63.4171 1213.1 65.5915C1212.38 70.4475 1212.38 70.4475 1219.37 70.7374C1220.89 70.7374 1222.26 69.6502 1223.85 70.375C1226.73 70.7374 1229.62 70.375 1230.26 67.041C1230.91 63.7071 1227.88 62.4025 1225.22 61.2428C1227.87 59.7634 1230.14 57.6832 1231.86 55.1672C1233.57 52.6512 1234.68 49.7684 1235.1 46.7472C1236.54 40.7316 1235.46 33.7737 1240.07 28.1929C1243.1 33.8462 1240.07 40.2242 1242.67 45.7326C1244.76 49.9363 1244.83 55.7345 1251.69 55.662C1252.26 55.662 1253.42 56.9666 1253.42 56.9666C1245.41 68.1282 1258.61 62.4025 1260.63 65.7364C1263.73 68.9255 1260.63 72.187 1260.63 75.3035C1263.01 75.8109 1261.85 73.1292 1263.01 72.6218C1264.38 69.2154 1267.55 66.2438 1265.17 62.0401C1265.7 60.6322 1266.3 59.2532 1266.98 57.9088C1276.06 60.663 1273.47 51.9656 1276.28 48.7041C1277.29 47.3995 1274.4 44.9353 1277.58 45.0078C1279.67 45.0078 1280.53 46.5298 1280.46 48.4867C1280.46 51.6757 1279.89 54.5024 1284.93 54.2849C1286.95 54.2849 1285.8 57.5464 1284.93 59.3584C1284.07 61.1703 1280.61 61.7502 1278.88 63.9245C1280.61 67.4034 1283.42 63.9245 1285.58 65.2291C1287.75 66.5337 1291.86 65.2291 1289.98 70.0851C1289.12 72.4769 1291.28 73.0567 1292.87 73.3466C1294.45 73.6365 1295.1 72.5494 1295.97 71.2448C1299.65 65.7364 1295.1 58.1263 1300.66 53.2702C1291.93 48.7041 1301.45 42.6885 1302.1 41.8912C1309.31 33.1939 1307.15 23.1195 1307.8 13.4799C1308.03 12.3535 1308.39 11.2586 1308.88 10.2184C1310.39 6.08718 1312.05 8.69638 1313.64 10.2184C1314.94 11.2646 1315.99 12.6018 1316.69 14.124C1317.39 15.6462 1317.73 17.3116 1317.68 18.9882C1316.52 21.8873 1312.34 25.6562 1319.62 26.236C1318.11 31.092 1325.03 33.4838 1322.8 39.1371C1321.5 42.1811 1328.21 46.9647 1320.56 48.7766L1329.22 54.4299L1324.17 55.807C1329 60.5905 1333.69 65.4465 1329.65 73.0567C1328.64 75.0136 1329.65 76.9705 1329.07 78.9274C1328.71 82.2614 1330.88 85.8128 1332.97 85.8128C1336.79 85.8128 1337.73 80.8118 1340.76 78.565C1343.79 76.3182 1341.69 75.5209 1339.96 74.2163C1336.65 71.6796 1339.96 71.0273 1341.33 70.8099C1344.72 70.8099 1348.55 70.8099 1351.65 70.8099C1351.93 70.5343 1352.28 70.3465 1352.66 70.2692C1353.05 70.192 1353.45 70.2288 1353.81 70.375C1355.4 71.1723 1355.97 74.0714 1358.64 72.6943C1361.17 74.5062 1365.86 69.7952 1367.08 75.3035C1368.31 80.8118 1368.74 83.8559 1360.59 83.0586C1367.44 87.4073 1376.02 86.3926 1377.68 95.1624C1377.68 97.1918 1379.27 95.1624 1380.14 95.1624C1382.08 94.7276 1383.89 94.5101 1385.11 92.3358C1387.06 89.0018 1391.46 97.4093 1391.96 91.8285C1391.96 88.1321 1387.78 84.5807 1383.31 83.2036C1384.68 79.3623 1388.21 78.6375 1391.39 77.1879C1386.34 73.9264 1385.4 71.2448 1391.39 67.9108C1394.5 66.496 1397.88 65.7643 1401.3 65.7643C1404.72 65.7643 1408.1 66.496 1411.22 67.9108C1407.61 75.1586 1409.42 76.9705 1422.54 77.3329C1423.99 76.6806 1425.86 76.3182 1424.78 73.9264L1423.05 70.7374C1423.1 70.368 1423.26 70.0215 1423.5 69.739C1423.74 69.4565 1424.06 69.2496 1424.42 69.1429C1424.98 68.5339 1425.42 67.8176 1425.7 67.0364C1425.99 66.2551 1426.11 65.4246 1426.07 64.5938C1426.03 63.763 1425.83 62.9488 1425.47 62.199C1425.11 61.4492 1424.61 60.7791 1423.99 60.2281C1422.18 58.4162 1418.29 57.1116 1421.03 52.9803C1421.03 51.3858 1421.03 50.2987 1423.05 51.1684C1428.39 51.8932 1434.59 53.6326 1428.89 44.4279C1425.93 39.6444 1433.72 42.6885 1433 39.282C1431.92 38.2673 1432.64 36.8903 1432.42 35.7306L1438.19 30.6572C1437.62 28.9177 1438.19 28.4828 1440 28.8452V219.172C1437.02 220.268 1433.81 220.543 1430.69 219.969H1300.44C1297.32 219.399 1294.11 219.674 1291.14 220.767H52.0724C39.3067 218.882 26.4689 220.767 13.7033 219.824C9.13468 220.46 4.4883 220.239 0 219.172L0 21.235C0.57698 20.5103 1.08184 20.5103 1.65882 21.235C5.55343 26.5984 3.60612 36.1655 13.2705 37.4701C13.2705 37.4701 13.2705 37.9774 13.2705 38.1224C6.92376 51.1684 18.824 42.761 21.7089 44.8628C21.7089 50.0812 14.8572 49.4289 15.0736 54.14C15.0736 56.3143 17.4536 56.4593 18.7518 57.5464C18.7518 60.3006 15.6506 60.8079 14.4245 62.9823C16.8767 66.3887 20.9155 62.5474 23.6562 65.0841C22.9349 67.6933 17.4536 65.0841 18.5355 69.5778C17.8864 71.6796 18.5355 72.4044 20.627 71.6796C27.8393 70.375 34.0418 64.9392 42.2638 69.2878C46.0863 71.3172 43.4177 71.7521 42.6965 73.1292C40.6049 77.1154 44.4996 77.1879 46.3026 78.6375C48.152 81.1449 50.2815 83.4308 52.6494 85.4504C57.6258 89.0018 56.8325 91.9009 52.6494 94.8C61.3762 102.048 65.9921 89.4367 73.7092 90.8138C74.1419 88.3495 65.0545 87.0449 72.6994 83.566C74.5746 82.7687 73.2764 81.9715 72.1946 81.5366C69.8145 80.4494 67.0018 78.9274 68.0115 76.1008C69.0212 73.2741 72.9158 74.6512 75.2237 74.2888C76.032 74.0166 76.8064 73.6518 77.5316 73.2016C78.902 72.4044 77.5316 69.2154 80.4887 69.7952C83.4457 70.375 89.1434 70.9548 84.5275 77.043C85.1045 80.1595 86.0421 80.4494 89.3597 78.6375C91.5955 73.6365 95.995 75.5209 99.7454 75.376C104.722 76.5356 104.866 70.0851 108.833 69.6502C110.144 69.3436 111.514 69.4119 112.789 69.8474C114.064 70.2829 115.192 71.0682 116.045 72.1145C118.786 75.5934 121.238 73.3466 123.762 72.1145C126.286 70.8824 128.378 69.5053 129.316 71.0998C134.436 79.7971 147.058 73.4916 150.952 80.5944C152.196 83.7104 154.227 86.4462 156.845 88.531C159.464 90.6157 162.579 91.9773 165.882 92.4808C171.868 93.5679 172.373 99.7285 170.858 105.237C168.334 114.804 170.858 118.355 180.45 118.863C185.571 118.863 190.764 118.863 195.957 118.863C197.13 119.041 198.329 118.926 199.447 118.527C200.566 118.128 201.569 117.458 202.368 116.576C203.167 115.694 203.737 114.628 204.028 113.472C204.318 112.316 204.321 111.105 204.034 109.948C203.42 102.512 203.565 95.0314 204.467 87.6247C204.253 86.3843 204.298 85.1126 204.599 83.8906C204.901 82.6686 205.453 81.5233 206.22 80.5276C206.987 79.532 207.952 78.7079 209.053 78.1079C210.154 77.5079 211.368 77.1452 212.617 77.043C217.882 76.6081 223.796 77.043 226.104 83.9284C227.186 87.0449 227.33 91.1761 231.874 91.611C233.916 91.7348 235.965 91.7105 238.004 91.5385C240.069 91.4321 242.121 91.141 244.135 90.6688C246.875 90.6688 248.895 92.9881 251.347 92.9156C263.247 92.3358 267.069 100.163 268.873 109.875C269.233 111.687 268.873 114.659 271.83 114.152C274.787 113.644 274.354 110.89 273.705 109.078C272.424 104.359 271.865 99.471 272.046 94.5826C272.046 85.3054 273.56 82.2614 281.927 78.71C285.468 76.8123 289.504 76.0519 293.489 76.5314C297.474 77.011 301.217 78.7073 304.213 81.3916C306.232 83.421 307.242 86.3201 309.91 87.7697C313.427 88.738 316.873 89.9489 320.224 91.3936C320.656 89.5816 319.07 88.2046 319.575 86.61L320.079 85.5229H326.859C328.518 85.9577 329.528 85.5229 328.662 83.7109C329.323 81.9317 329.263 79.9628 328.494 78.2278C327.725 76.4929 326.309 75.1305 324.551 74.4338C323.109 73.6365 323.109 72.4044 322.892 69.7227C322.676 67.041 318.565 67.9108 318.276 65.3016C323.397 62.6924 328.734 72.187 333.422 65.3016C336.307 61.0254 331.114 59.3584 328.878 56.8217C330.898 55.2271 334.143 56.8217 335.658 54.3574C337.173 51.8932 338.759 50.1537 338.976 47.1096C339.192 44.0656 343.519 44.7179 341.428 42.5435C336.74 37.5426 342.582 37.1802 344.241 35.2957C343.808 33.5563 344.241 33.1214 346.116 33.5563C348.063 38.1224 349.794 42.9059 352.174 47.3271C353.039 48.9216 353.328 51.8932 357.078 51.2409C360.829 50.5886 360.324 52.473 358.593 54.9372C354.338 61.0979 358.593 61.3878 363.137 61.1703C363.994 60.606 364.997 60.3053 366.021 60.3053C367.046 60.3053 368.049 60.606 368.906 61.1703C372.296 65.3016 368.329 68.0557 366.959 71.3172C366.923 71.8965 366.923 72.4774 366.959 73.0567L367.392 74.6512L368.041 76.1008L369.411 77.1879C374.46 77.1879 374.027 73.7815 372.873 70.5925C371.711 68.3269 370.954 65.8736 370.637 63.3447C370.784 62.5364 371.189 61.7983 371.791 61.2428C372.296 59.2859 379.004 59.6483 373.739 55.2996C372.513 54.2849 375.902 53.3427 377.056 52.9079C383.908 50.661 386.865 47.3271 380.662 40.949C385.783 40.2242 385.495 40.2242 386.432 33.7012C386.432 32.2517 389.317 31.1645 391.409 29.425C388.668 27.2507 382.465 26.9608 386.216 21.38C386.216 21.38 386.216 20.4378 385.783 19.9304C392.995 21.1626 395.087 16.379 395.808 10.4358C395.97 10.2625 396.165 10.1244 396.383 10.0299C396.6 9.93549 396.834 9.88676 397.07 9.88676C397.307 9.88676 397.541 9.93549 397.758 10.0299C397.975 10.1244 398.17 10.2625 398.332 10.4358C398.909 11.668 399.126 13.8423 399.991 14.1322C414.416 18.9882 401.217 22.2497 399.126 26.4534L411.314 27.6856C412.973 30.1498 408.069 34.3535 413.406 35.8031C421.988 38.2673 420.185 41.6013 414.488 45.6601C410.81 48.1968 411.17 50.2987 415.642 51.7482C417.805 52.473 420.402 53.8501 419.32 55.4446C412.108 65.7364 428.768 64.4318 427.326 72.1145C427.326 72.7668 432.014 69.7952 434.971 71.1723C433.864 70.2334 432.989 69.0495 432.413 67.7136C431.838 66.3777 431.579 64.9261 431.656 63.4726C431.733 62.0191 432.144 60.6033 432.856 59.3362C433.569 58.0691 434.564 56.9851 435.764 56.1694C438.288 54.5749 438.937 56.7492 438.937 58.2712C438.937 59.7933 437.639 62.185 438.072 63.9245C439.082 68.1282 445.284 63.1272 446.15 67.9108C446.943 71.0273 440.091 70.8824 443.337 74.4338C446.582 77.9852 440.957 78.1301 441.606 81.1017C443.048 82.7687 450.405 78.2026 448.097 86.8275C447.376 89.5816 454.732 90.9587 459.204 90.089C461.223 87.1899 447.448 83.566 459.564 81.1017C459.99 80.8087 460.511 80.6904 461.021 80.7713C461.53 80.8521 461.99 81.126 462.305 81.5366C467.57 86.5376 480.84 84.6532 483.509 78.3476C484.519 75.9558 482.139 76.8255 480.985 76.6081C477.523 76.1732 477.956 73.2741 477.595 70.9548C476.513 64.9392 476.802 59.6483 484.302 58.2712C481.273 54.2849 485.312 46.6023 477.09 45.7326C477.09 41.9637 480.696 42.2536 482.139 40.2967C480.408 38.9921 477.739 39.7894 476.946 37.2526C480.824 34.2132 485.524 32.4198 490.433 32.1067L483.22 26.3085C482.427 25.5837 480.768 24.6415 481.85 23.6993C485.673 20.2928 490.505 17.6836 489.856 11.3056C490.321 11.0542 490.843 10.9293 491.37 10.9432C492.668 10.9432 493.75 12.1753 493.39 13.2625C492.895 14.4843 492.666 15.7981 492.717 17.1161C492.768 18.4341 493.097 19.726 493.684 20.9058C494.271 22.0855 495.102 23.1259 496.121 23.9576C497.139 24.7892 498.323 25.393 499.592 25.7287C503.487 27.4681 500.097 34.426 493.534 38.0499C498.313 38.7966 503.179 38.7966 507.958 38.0499C508.336 40.6771 507.682 43.3488 506.134 45.4997C504.586 47.6505 502.265 49.1117 499.664 49.5739C499.664 49.5739 499.664 50.1537 499.664 50.3711C499.845 50.6017 500.065 50.798 500.314 50.951C501.323 52.8354 499.448 53.3427 498.655 54.3574C496.924 57.6914 500.53 57.329 501.684 58.7061C502.838 60.0832 504.569 62.9098 500.169 62.9098C499.377 64.6612 499.224 66.637 499.737 68.4906C500.386 70.5924 500.746 73.2016 503.703 73.1292C506.66 73.0567 506.732 70.4475 507.165 68.2732C508.896 66.2438 507.165 62.6199 510.699 61.4602C521.373 63.1272 513.656 51.9656 519.065 49.8638C522.527 51.6757 519.065 58.7061 526.278 59.141C527.72 59.141 524.979 63.852 522.311 65.4465L528.441 68.0557C528.794 68.4553 529.254 68.7433 529.766 68.8849C530.278 69.0264 530.82 69.0153 531.326 68.853C534.355 68.0557 534.355 68.0557 533.201 65.8814C531.543 62.4749 535.726 60.7355 535.581 57.6914C535.395 56.3256 534.699 55.082 533.634 54.2125C535.565 48.2793 538.793 42.8557 543.082 38.3398C545.102 36.7453 547.121 34.8609 542.217 34.9334C541.784 34.9334 541.423 34.3535 540.991 34.0636C547.554 27.3957 540.558 17.2488 546.905 10.5808C547.254 10.2442 547.719 10.0562 548.203 10.0562C548.687 10.0562 549.152 10.2442 549.501 10.5808C551.16 15.2194 556.136 18.9158 551.809 25.0764C549.717 28.048 554.982 30.7296 555.631 34.426C556.281 38.1224 561.545 38.2673 558.228 43.1958C556.858 45.2977 562.555 45.6601 562.411 48.994C560.103 49.6463 557.579 47.6895 555.199 49.5014C556.713 53.2703 561.69 52.5455 563.565 55.807C564.07 58.6336 558.228 56.8217 560.319 58.851C563.032 60.9183 564.882 63.9264 565.509 67.2894C566.136 70.6524 565.494 74.1294 563.709 77.043C563.709 77.4054 561.257 82.9862 566.089 83.7109C567.532 73.4916 567.532 73.4916 584.625 71.9695C584.625 68.708 585.923 65.9539 589.745 65.5915C593.568 65.2291 593.856 67.6209 594.361 70.2301C594.866 71.7521 595.299 73.3466 597.462 71.9695C601.357 73.709 604.098 66.7511 608.714 70.52C609.795 71.3897 611.382 68.9255 609.867 67.041C608.353 65.1566 605.901 61.3153 601.934 61.0254C602.944 57.1116 606.91 56.5318 609.651 54.2849C607.56 52.328 605.035 51.3133 604.747 48.4867C611.526 45.95 617.801 40.2967 625.734 45.0078C626.737 45.4931 627.774 45.9049 628.836 46.2399C623.21 54.0675 636.697 54.2849 634.894 61.4602C634.173 64.2144 639.87 62.0401 642.106 63.6346C644.342 65.2291 645.568 61.3153 647.588 63.1997C647.607 63.7726 647.767 64.3319 648.053 64.8278C648.339 65.3237 648.743 65.7408 649.228 66.042C649.714 66.3432 650.266 66.5193 650.835 66.5545C651.404 66.5897 651.973 66.483 652.492 66.2438C654.671 65.929 656.679 64.8815 658.19 63.2722C669.08 61.0979 670.234 59.2134 665.402 51.6033C667.79 50.1267 670.531 49.3254 673.335 49.284C674.633 48.0518 674.489 46.7472 673.191 45.6601Z" fill="#121E18"/>
<path d="M1290.99 220.911C1294.98 219.143 1299.37 218.54 1303.68 219.171H1439.85C1438.27 222.795 1435.16 220.766 1432.64 220.766C1385.62 220.911 1338.4 220.959 1290.99 220.911Z" fill="#121E18"/>
<path d="M0 219.17H42.1195C45.5338 218.801 48.9826 219.404 52.0724 220.91C36.2055 220.91 20.2664 220.91 4.39947 220.91C3.10127 220.765 0 223.011 0 219.17Z" fill="#121E18"/>
<path d="M1.80306 21.2344H0V12.5371C3.96674 14.7839 3.17339 17.9729 1.80306 21.2344Z" fill="#121E18"/>
<path d="M1440 21.2344C1437.83 18.3353 1434.8 15.4362 1440 12.5371V21.2344Z" fill="#121E18"/>
<path d="M1440 28.1909L1438.2 30.0029C1437.4 28.8432 1434.74 28.7708 1435.67 26.5239C1436.61 24.2771 1438.27 24.6395 1440 24.712V28.1909Z" fill="#121E18"/>
<path d="M232.231 95.8132C225.668 97.5527 221.485 95.8132 222.206 88.0581C222.783 82.1874 218.312 81.6076 214.273 81.3901C210.234 81.1727 209.008 84.2892 208.864 88.6379C208.034 96.3222 208.034 104.074 208.864 111.758C209.196 113.276 209.17 114.851 208.786 116.356C208.403 117.861 207.673 119.255 206.656 120.426C205.638 121.596 204.362 122.51 202.929 123.094C201.496 123.679 199.947 123.917 198.406 123.79C190.947 124.043 183.48 123.825 176.048 123.137C165.013 121.978 162.705 118.281 165.302 107.555C167.898 96.8279 167.826 96.2481 157.296 94.871C156.438 94.871 155.588 94.7 154.795 94.3676C154.003 94.0353 153.284 93.5483 152.681 92.9349C152.077 92.3215 151.6 91.5938 151.278 90.794C150.956 89.9942 150.796 89.1382 150.805 88.2755C150.228 82.2598 147.632 79.7956 141.646 82.4773C136.958 84.5067 134.073 82.4773 131.476 78.6359C129.962 76.4616 129.241 72.9102 125.274 73.635C123.254 73.635 122.317 72.2579 122.966 70.156L128.087 59.7917C128.087 57.9798 128.087 56.2403 128.087 54.4283C128.087 52.6164 128.087 52.6164 128.519 51.9641C134.722 42.1071 134.578 30.8006 135.732 19.8564C137.823 15.5078 139.77 18.2619 141.79 19.8564C145.901 23.8427 144.603 27.9015 142.367 32.3951C140.131 36.8887 145.54 37.1061 146.838 38.7731C150.805 43.8466 147.632 51.5292 154.051 54.9357C151.526 56.7477 149.363 53.4137 147.271 54.9357C147.271 55.3706 147.271 56.2403 147.271 56.3128C153.185 57.6898 151.815 64.2129 154.483 67.9092C156.286 70.0836 156.791 74.2873 160.325 73.9974C163.859 73.7075 162.561 68.779 164.076 66.2422C164.342 65.9978 164.689 65.8622 165.049 65.8622C165.41 65.8622 165.757 65.9978 166.023 66.2422C167.682 70.8808 169.124 75.5919 170.927 80.2305C172.73 84.8691 174.822 89.5076 180.952 84.5791C173.74 78.0561 173.74 78.0561 181.601 74.9396C182.323 73.49 182.972 72.1129 184.991 73.1276C188.237 73.1276 186.794 77.0414 187.371 77.1864C190.545 78.2011 194.584 81.825 196.747 79.5782C198.911 77.3314 194.944 74.5047 192.564 72.6928C195.697 71.082 198.357 68.6762 200.28 65.7141C202.203 62.7519 203.322 59.3362 203.527 55.8054C204.123 51.8776 205.015 48.0009 206.195 44.209C206.195 43.4117 207.421 41.9622 208.792 42.7594C210.162 43.5567 210.45 43.7016 210.018 45.3686C208.72 50.5145 212.254 54.8632 213.263 59.8642C213.263 61.3862 215.211 63.633 216.364 63.7055C217.518 63.778 219.754 62.1835 219.61 59.6468C219.249 55.8779 221.702 53.921 224.803 52.399C225.018 52.0992 225.325 51.8795 225.678 51.7746C226.03 51.6696 226.407 51.6853 226.75 51.8192C229.13 52.7614 229.202 55.443 230.645 57.11C232.087 58.777 232.881 61.8936 231.222 64.3578C234.539 66.7496 228.842 74.2873 236.703 74.1423C235.621 78.346 232.159 80.4479 228.337 83.2745C234.828 83.2745 241.03 85.4489 243.555 76.824C244.564 73.49 250.19 76.824 252.281 73.2001C252.281 70.9533 254.589 70.8083 255.888 69.7937C261.153 68.779 260.936 72.6203 259.638 75.157C258.34 77.6937 258.7 77.9837 260.864 78.4185C263.028 78.8534 262.523 81.7525 264.759 80.158L279.183 77.6213C273.918 70.8808 269.158 62.7633 274.567 56.3853C277.392 53.5176 281.083 51.6708 285.062 51.1332C289.042 50.5956 293.086 51.3975 296.565 53.4137C290.29 62.8358 304.787 62.6183 303.777 69.5037C305.652 70.9533 307.383 72.4029 305.652 75.0121C304.21 78.7809 304.787 80.6653 309.475 80.158C314.163 79.6506 318.201 79.4332 319.139 85.3764C314.812 88.4205 311.278 92.6242 305.291 92.6242C302.623 86.536 300.387 80.0855 291.516 81.1002C272.404 83.2021 274.495 85.8113 276.298 103.931C277.031 107.873 277.369 111.879 277.308 115.89C277.385 116.824 277.243 117.764 276.893 118.634C276.544 119.504 275.997 120.28 275.297 120.9C274.596 121.52 273.761 121.966 272.858 122.203C271.955 122.441 271.009 122.463 270.096 122.268C265.768 121.833 263.388 120.601 262.883 115.527C262.234 101.032 261.225 100.234 248.459 97.4802C246.189 97.0426 244.16 95.7779 242.761 93.9288C241.282 93.1254 239.707 92.5165 238.073 92.1168C237.397 91.9211 236.684 91.8914 235.993 92.0301C235.303 92.1688 234.656 92.472 234.107 92.9141C233.427 93.8437 232.801 94.8117 232.231 95.8132Z" fill="#121E18"/>
<path d="M1352.51 69.7936H1351.86C1351.86 67.6918 1349.7 68.489 1348.76 67.6917C1346.24 65.5174 1341.98 63.1257 1341.98 60.8064C1341.98 57.0375 1346.81 60.8064 1349.19 58.7045L1351.21 56.965C1349.05 54.9357 1345.37 56.3852 1344 52.7613C1348.98 49.6448 1348.47 41.8896 1354.24 38.2658C1354.64 37.8349 1355.12 37.4903 1355.65 37.2534C1356.18 37.0165 1356.76 36.8924 1357.34 36.8887C1364.55 38.3382 1362.03 45.8759 1361.38 48.0503C1360.38 52.2294 1361 56.6332 1363.11 60.3715C1368.16 68.634 1360.95 67.6193 1357.56 69.9386C1356.84 70.5212 1355.93 70.8265 1355.01 70.8C1354.08 70.7734 1353.2 70.4166 1352.51 69.7936Z" fill="#121E18"/>
<path d="M988.08 100.742C986.493 97.4806 984.113 98.1329 981.589 99.365C979.065 100.597 976.613 101.829 974.377 98.9302C974.13 97.5638 973.535 96.2849 972.65 95.218C971.765 94.1512 970.621 93.3326 969.328 92.842C972.141 89.2181 976.54 92.4072 978.848 89.0007C977.55 86.319 973.367 89.0007 971.636 85.1594C976.468 82.7676 975.026 75.5923 980.579 73.273C981.373 72.6932 981.589 71.606 982.671 71.3161C988.513 67.1848 989.378 75.0125 989.018 75.4473C985.411 80.0859 990.46 82.6951 991.109 85.7392L994.643 96.031C993.605 97.7851 992.371 99.4143 990.965 100.887C990.535 101.184 990.019 101.331 989.498 101.305C988.977 101.278 988.478 101.081 988.08 100.742Z" fill="#121E18"/>
<path d="M114.316 75.3021C113.715 74.3043 112.883 73.467 111.892 72.8614C110.9 72.2557 109.777 71.8996 108.619 71.8232C106.527 72.7654 105.806 78.2737 102.128 73.6351C100.108 71.5333 99.8197 68.1993 96.5742 67.2571C99.0985 63.9231 102.344 66.7497 104.291 63.9231C94.4105 61.9662 102.56 56.6753 102.344 52.6166C103.8 51.0957 105.016 49.3604 105.95 47.4706L107.104 45.6587C107.897 43.8467 109.051 42.7596 111.143 43.6293C115.254 46.4559 115.759 47.4706 114.605 50.8771C114.584 57.68 116.788 64.3013 120.879 69.7213C120.23 75.9544 118.499 77.404 114.316 75.3021Z" fill="#121E18"/>
<path d="M593.711 71.1717C590.249 64.8661 587.653 71.1717 584.623 71.7515C580.512 70.157 578.998 65.8083 575.752 63.1991C577.556 59.4303 582.46 63.1992 584.696 59.2129L576.979 56.6037C583.037 53.4871 581.017 45.9494 586.931 43.7026C588.157 42.7604 588.807 41.0209 590.61 40.876C597.822 45.6595 593.999 53.8495 596.235 60.2276C597.437 63.9511 597.179 67.9952 595.514 71.5341C594.576 71.969 594.072 71.824 593.711 71.1717Z" fill="#121E18"/>
<path d="M773.439 95.8868C768.751 91.1033 765.289 95.0171 761.611 97.6263C758.654 94.7997 750.721 95.452 754.399 87.6968V85.8124C757.212 84.6528 760.818 90.1611 763.342 84.7253C761.395 83.1307 758.221 84.7253 756.13 81.8986C761.323 78.5646 759.231 69.9398 766.732 68.1279C766.81 67.7342 767.002 67.3726 767.284 67.0887C767.567 66.8049 767.927 66.6116 768.318 66.5333C772.502 65.2287 773.439 68.6352 773.295 71.0994C772.586 74.4898 772.599 77.9924 773.332 81.3775C774.066 84.7626 775.503 87.9535 777.55 90.7409C779.714 93.1327 774.593 93.785 773.439 95.8868Z" fill="#121E18"/>
<path d="M1265.32 60.8799C1266.62 63.5616 1269.28 64.4313 1272.53 65.7359C1265.32 68.9974 1267.19 71.8965 1272.53 74.2883C1270.65 76.0278 1268.92 75.3755 1267.27 75.2305C1261.91 76.5342 1256.32 76.5342 1250.97 75.2305C1254.5 72.0415 1259.84 70.447 1260.49 64.6487C1261.58 64.6154 1262.64 64.2325 1263.51 63.5552C1264.38 62.8779 1265.01 61.9412 1265.32 60.8799Z" fill="#121E18"/>
<path d="M114.315 75.3025L120.878 69.7217H122.969L125.277 73.2006C123.042 79.7961 117.56 78.4915 112.656 78.3466C111.502 78.3466 110.06 77.8392 111.286 76.3897C112.512 74.9401 113.305 75.6649 114.315 75.3025Z" fill="#121E18"/>
<path d="M478.03 71.6055L481.42 77.2588C478.535 82.0423 473.703 78.1285 469.808 79.6505C467.284 80.6652 469.231 76.1716 469.808 75.8092C472.75 74.8466 475.524 73.4283 478.03 71.6055Z" fill="#121E18"/>
<path d="M1220.6 71.6786C1211.37 73.9254 1211.37 73.9254 1209.64 68.9969C1208.85 66.5327 1208.85 66.5326 1213.32 64.7207V66.7501C1215.41 69.0694 1220.03 67.4024 1220.6 71.6786Z" fill="#121E18"/>
<path d="M21.0575 71.678C24.0145 83.9268 15.7926 76.0267 11.8979 76.2441L19.1102 69.5762L21.0575 71.678Z" fill="#121E18"/>
<path d="M510.625 61.4582L508.967 67.6913C503.341 74.9391 499.374 74.5767 494.542 66.4592L499.807 62.9078C504.856 72.5473 506.947 60.2986 510.625 61.4582Z" fill="#121E18"/>
<path d="M1068.13 57.6169L1061.35 61.2408C1059.33 60.7335 1060.2 58.7766 1059.55 57.6169C1059.11 54.2829 1061.93 52.6884 1063.37 50.3691C1065.68 52.2198 1067.34 54.7568 1068.13 57.6169Z" fill="#121E18"/>
<path d="M685.162 24.7851H679.897C675.93 21.4511 682.782 19.1318 680.906 15.7979C680.906 15.7979 682.926 15.7979 683.719 16.2327C686.676 18.6245 685.162 21.8135 685.162 24.7851Z" fill="#121E18"/>
<path d="M185.356 73.2723L181.966 75.0843C181.755 74.5633 181.514 74.0551 181.245 73.5623C179.37 69.9384 181.822 67.3292 183.553 64.72C184.274 63.6328 185.861 64.72 186.51 65.2998C188.962 68.3438 185.212 70.5182 185.356 73.2723Z" fill="#121E18"/>
<path d="M727.716 23.6973C729.313 25.4146 730.321 27.6 730.594 29.9341C730.866 32.2682 730.389 34.6288 729.231 36.6708C728.855 36.8323 728.45 36.9155 728.041 36.9155C727.632 36.9155 727.227 36.8323 726.851 36.6708C725.98 34.5899 725.605 32.3334 725.755 30.081C725.905 27.8287 726.577 25.6427 727.716 23.6973Z" fill="#121E18"/>
<path d="M256.253 69.7932C255.941 70.5942 255.455 71.3155 254.832 71.9047C254.208 72.4939 253.461 72.9362 252.647 73.1996C251.091 73.1805 249.605 72.546 248.511 71.4335C247.418 70.321 246.805 68.8202 246.805 67.2564C246.805 65.517 249.545 66.6041 250.988 66.0968C252.43 65.5894 253.728 66.4592 254.378 67.9087L256.253 69.7932Z" fill="#121E18"/>
<path d="M111.141 43.6294L107.102 45.6588C101.332 44.3542 105.66 41.5276 106.381 39.4982C107.102 37.4688 107.751 35.8743 109.987 37.0339C112.223 38.1936 112.223 41.1652 111.141 43.6294Z" fill="#121E18"/>
<path d="M768.465 66.533L766.878 68.1275C766.878 65.0834 760.459 68.5623 762.984 63.8513C764.065 61.8219 764.57 57.8356 767.816 59.4301C771.061 61.0246 770.484 63.9238 768.465 66.533Z" fill="#121E18"/>
<path d="M226.824 52.5442H225.165C224.083 51.5295 221.848 50.1524 222.064 49.4277C222.795 47.052 223.97 44.8382 225.526 42.9046C226.463 41.6725 227.69 42.9046 228.122 43.8469C228.524 44.3679 228.813 44.9679 228.97 45.6081C229.126 46.2483 229.148 46.9144 229.032 47.5634C228.917 48.2124 228.667 48.8298 228.299 49.3756C227.931 49.9215 227.453 50.3837 226.896 50.7323C227.089 50.8819 227.233 51.0859 227.311 51.3182C227.388 51.5506 227.394 51.8008 227.329 52.0369C227.185 52.3268 226.968 52.5442 226.824 52.5442Z" fill="#121E18"/>
<path d="M1356.91 37.2506L1353.81 38.6277C1346.6 35.0038 1352.8 32.0322 1353.81 28.6982C1359.36 30.2203 1356.48 34.279 1356.91 37.2506Z" fill="#121E18"/>
<path d="M590.249 40.8026L586.571 43.6293C588.663 40.2228 582.604 41.5999 583.758 39.0632C584.912 36.5265 585.561 33.12 588.23 33.4099C593.567 34.1347 589.456 38.3384 590.249 40.8026Z" fill="#121E18"/>
<path d="M1036.76 50.7315H1033.08C1033.08 49.5719 1033.08 48.4122 1033.08 47.2526C1033.08 44.9333 1033.08 42.3241 1036.11 42.0342C1037.41 42.0342 1037.77 42.5415 1037.41 44.136C1037.05 45.7305 1043.18 49.282 1036.76 50.7315Z" fill="#121E18"/>
<path d="M983.246 71.3162L981.154 73.2731C983.173 69.8667 977.692 70.6639 978.485 68.4896C979.312 66.3885 980.537 64.4687 982.092 62.8364C982.813 62.0391 983.967 62.8364 984.76 63.996C987.573 67.185 983.534 68.852 983.246 71.3162Z" fill="#121E18"/>
<path d="M254.375 68.1272L250.985 66.3153C250.985 63.9235 249.975 61.1693 252.716 59.0675C252.949 58.9059 253.216 58.7995 253.495 58.7563C253.775 58.713 254.061 58.734 254.332 58.8177C254.603 58.9014 254.851 59.0456 255.058 59.2395C255.265 59.4334 255.426 59.6719 255.529 59.9372C257.26 63.0538 255.673 65.5905 254.375 68.1272Z" fill="#121E18"/>
<path d="M226.824 52.5446V50.6602C230.43 50.6602 234.036 50.6602 232.233 56.096C232.096 56.6216 231.769 57.0767 231.315 57.3718C230.861 57.6669 230.314 57.7806 229.781 57.6905C227.112 56.9657 225.814 55.2988 226.824 52.5446Z" fill="#121E18"/>
<path d="M647.734 62.9812C645.931 63.4886 644.2 64.6482 642.252 63.4161C642.924 63.1862 643.495 62.7265 643.864 62.1172C644.233 61.5078 644.377 60.7875 644.272 60.0821C644.272 57.4729 645.786 55.1536 648.166 56.6032C649.465 57.328 652.205 61.1693 647.734 62.9812Z" fill="#121E18"/>
<path d="M346.187 33.5557L344.312 35.2951L343.663 34.7878C340.85 31.8162 342.509 28.6272 343.158 25.5106C343.158 25.5106 345.033 25.0033 345.25 25.5106C346.033 26.6796 346.526 28.0195 346.689 29.4189C346.852 30.8183 346.68 32.2366 346.187 33.5557Z" fill="#121E18"/>
<path d="M141.577 19.6387H135.519C133.644 15.9423 138.548 15.3625 138.837 12.3909C138.837 10.5065 141.289 12.3909 141.433 13.4781C141.649 15.5242 141.697 17.5847 141.577 19.6387Z" fill="#121E18"/>
<path d="M498.582 54.3568L500.24 50.9503C501.034 50.9503 501.899 50.9503 502.693 50.9503C504.64 50.9503 507.957 50.0081 507.38 53.487C507.38 55.5889 504.351 56.5311 501.827 55.3715C500.77 54.9566 499.686 54.6175 498.582 54.3568Z" fill="#121E18"/>
<path d="M1121.65 40.2231C1122.59 38.5561 1123.67 35.9469 1125.62 37.3965C1127.57 38.846 1130.59 41.0929 1126.92 43.992C1123.24 46.8911 1122.88 42.2525 1121.65 40.2231Z" fill="#121E18"/>
<path d="M1313.85 8.98498H1309.09C1309.09 5.50606 1312.84 4.0565 1312.41 0.432617C1317.68 3.11429 1313.71 6.23083 1313.85 8.98498Z" fill="#121E18"/>
<path d="M265.123 80.3752C267.215 88.2753 259.137 81.2449 259.065 86.8257C256.541 81.6073 263.248 82.0422 261.229 78.6357L265.123 80.3752Z" fill="#121E18"/>
<path d="M462.737 82.1873L459.997 81.7524C459.997 79.4331 458.266 76.8239 461.511 75.3744C462.737 74.7946 463.891 75.3744 463.963 76.4616C464.036 77.5487 467.57 81.2451 462.737 82.1873Z" fill="#121E18"/>
<path d="M166.387 66.3876H164.44C163.91 66.0313 163.469 65.5561 163.154 64.9995C162.838 64.4429 162.655 63.8201 162.62 63.1803C162.585 62.5406 162.699 61.9014 162.952 61.3134C163.205 60.7253 163.591 60.2045 164.079 59.7921C164.412 59.6144 164.784 59.5215 165.161 59.5215C165.538 59.5215 165.91 59.6144 166.243 59.7921C166.802 60.1336 167.266 60.6111 167.593 61.1805C167.92 61.7499 168.098 62.3929 168.113 63.0501C168.127 63.7073 167.977 64.3575 167.675 64.9408C167.373 65.5241 166.93 66.0217 166.387 66.3876Z" fill="#121E18"/>
<path d="M80.994 69.7944L78.037 73.2008C78.037 69.7219 75.4406 65.953 78.9746 62.9814C79.8224 63.8763 80.4473 64.9601 80.7983 66.1442C81.1493 67.3284 81.2164 68.5792 80.994 69.7944Z" fill="#121E18"/>
<path d="M89.8632 78.491C88.0601 85.2315 82.6509 76.6791 80.7036 81.4626C80.7036 77.5488 83.5885 78.1286 85.031 76.8965L89.8632 78.491Z" fill="#121E18"/>
<path d="M128.088 54.1387C130.685 55.8781 130.757 57.6901 128.088 59.502C126.73 59.5068 125.376 59.361 124.049 59.0672C123.761 56.2405 126.574 55.7332 128.088 54.1387Z" fill="#121E18"/>
<path d="M593.715 71.1709H595.157H597.465C598.836 74.7948 596.311 74.6498 594.076 74.5049C591.84 74.3599 590.974 75.0847 590.83 73.0553C590.686 71.0259 592.705 71.9682 593.715 71.1709Z" fill="#121E18"/>
<path d="M19.1824 57.5448C17.8131 57.617 16.4409 57.617 15.0715 57.5448C13.5569 57.5448 11.1047 58.632 11.0326 56.2402C10.9605 53.8484 13.7733 54.4282 15.5042 53.9209L19.1824 57.5448Z" fill="#121E18"/>
<path d="M1059.55 57.6182L1061.35 61.2421C1060.34 63.1265 1060.13 65.5907 1057.75 66.4605C1057.31 63.3439 1054.93 59.7925 1059.55 57.6182Z" fill="#121E18"/>
<path d="M338.975 47.2539C341.428 51.3127 337.172 52.1099 335.658 54.5017C333.927 50.4429 336.451 48.7759 338.975 47.2539Z" fill="#121E18"/>
<path d="M229.854 57.6892L232.307 56.0947C233.244 58.9938 234.542 61.9654 231.585 64.5746L229.854 57.6892Z" fill="#121E18"/>
<path d="M658.335 63.0527C656.315 65.5895 662.446 66.0243 659.849 68.1262C657.253 70.228 655.594 64.8647 652.637 66.0243L658.335 63.0527Z" fill="#121E18"/>
<path d="M102.129 73.6344C105.158 76.0262 105.879 70.3729 108.62 71.8224C107.61 77.2583 104.509 77.6207 100.253 75.2289L102.129 73.6344Z" fill="#121E18"/>
<path d="M751.298 66.5322C749.119 65.2248 746.623 64.5476 744.086 64.5753C746.542 63.1244 749.418 62.5617 752.236 62.9808C753.534 62.9808 754.616 63.778 753.967 65.0827C753.318 66.3873 752.236 66.0249 751.298 66.5322Z" fill="#121E18"/>
<path d="M413.841 36.4544C407.927 35.1498 410.74 31.5259 411.749 28.3369C414.634 30.4388 411.1 34.2076 413.841 36.4544Z" fill="#121E18"/>
<path d="M776.035 99.5831C775.274 99.923 774.475 100.166 773.655 100.308C772.068 100.308 769.399 101.178 769.327 99.4381C769.327 96.3216 772.284 98.4959 773.727 97.5537L776.035 99.5831Z" fill="#121E18"/>
<path d="M328.731 84.2881C330.246 85.3753 334.14 85.2303 333.131 87.1147C331.328 90.5212 328.948 87.1147 326.928 86.1L328.731 84.2881Z" fill="#121E18"/>
<path d="M1121.65 40.2227C1123.09 41.9621 1124.25 43.9915 1126.92 43.9915V47.1081L1121.58 43.9915L1121.65 40.2227Z" fill="#121E18"/>
<path d="M1432.42 35.0771C1435.67 35.8019 1433.87 37.324 1433 38.6286C1431.99 38.6286 1430.12 38.1937 1430.12 37.9038C1429.97 36.4542 1431.13 35.657 1432.42 35.0771Z" fill="#121E18"/>
<path d="M398.762 11.0864H396.238C396.238 9.56438 395.372 7.31756 397.103 6.66526C398.834 6.01296 400.06 7.8249 400.782 9.27446C401.503 10.724 400.205 11.0864 398.762 11.0864Z" fill="#121E18"/>
<path d="M530.894 68.8519C530.894 70.6639 533.634 72.6208 530.461 74.5052C528.874 72.6208 530.461 69.5042 528.009 68.0547L530.894 68.8519Z" fill="#121E18"/>
<path d="M974.66 98.7858C976.896 100.888 979.564 97.1913 981.872 99.2207C980.214 103.352 977.04 100.743 974.66 100.815V98.7858Z" fill="#121E18"/>
<path d="M372.221 61.2414V62.9808C371.79 63.3533 371.24 63.5581 370.671 63.5581C370.102 63.5581 369.552 63.3533 369.12 62.9808C367.606 61.1689 365.442 61.2414 363.495 60.734C364.751 59.7112 366.342 59.1964 367.956 59.2902C369.57 59.384 371.091 60.0798 372.221 61.2414Z" fill="#121E18"/>
<path d="M306.661 75.2294L304.786 69.7936C305.741 69.7497 306.683 70.0245 307.466 70.5752C308.248 71.1258 308.828 71.9214 309.114 72.8377C309.618 74.5771 307.815 74.7221 306.661 75.2294Z" fill="#121E18"/>
<path d="M1147.32 31.8877C1148.98 32.6125 1150.21 34.062 1149.12 35.6565C1148.04 37.251 1145.73 36.8162 1143.79 36.5263C1145.08 35.0767 1147.97 34.7868 1147.32 31.8877Z" fill="#121E18"/>
<path d="M105.946 47.4707C107.604 51.1671 104.72 51.7469 102.34 52.6166C101.907 49.7175 103.638 48.4129 105.946 47.4707Z" fill="#121E18"/>
<path d="M673.193 45.6592C674.636 46.6739 677.593 46.6014 676.727 49.2831C675.862 51.9647 674.492 50.0803 673.338 49.2831L673.193 45.6592Z" fill="#121E18"/>
<path d="M46.7328 78.6362C43.4152 78.2013 40.4581 77.5491 43.1267 73.1279L46.7328 78.6362Z" fill="#121E18"/>
<path d="M1423.05 50.5148L1421.03 52.3268C1420.21 52.2 1419.43 51.894 1418.74 51.4305C1418.06 50.967 1417.48 50.3574 1417.06 49.6451C1417.98 49.0103 1419.11 48.7475 1420.22 48.9086C1421.33 49.0696 1422.34 49.6428 1423.05 50.5148Z" fill="#121E18"/>
<path d="M1424.42 68.1999L1423.05 69.7944C1422.54 67.4751 1419.58 68.9246 1418.72 67.0402C1419.17 66.7308 1419.67 66.5149 1420.2 66.4056C1420.73 66.2963 1421.28 66.2958 1421.81 66.404C1422.34 66.5122 1422.85 66.727 1423.3 67.0356C1423.74 67.3441 1424.12 67.7401 1424.42 68.1999Z" fill="#121E18"/>
<path d="M549.068 10.869H546.472C547.481 9.56441 545.678 6.23041 548.635 6.81023C551.592 7.39006 551.304 9.12954 549.068 10.869Z" fill="#121E18"/>
<path d="M533.201 54.2109C534.932 54.2109 536.952 54.2109 537.096 56.9651C537.096 56.9651 535.798 57.4724 535.148 57.6898C534.499 57.9073 533.706 55.2981 533.201 54.2109Z" fill="#121E18"/>
<path d="M1352.51 69.7939L1357.13 70.3013L1358.86 71.7509C1355.9 73.4178 1353.81 72.983 1352.51 69.7939Z" fill="#121E18"/>
<path d="M369.052 63.2705H372.153C376.12 65.7348 382.828 67.3293 381.746 72.6926C380.726 75.5374 378.822 77.9763 376.315 79.6474C373.807 81.3185 370.83 82.1329 367.826 81.9698C365.832 82.0769 363.834 82.0769 361.84 81.9698C361.119 78.9982 364.581 79.2156 365.374 77.3312C366.888 74.5046 363.499 75.0119 362.85 73.7073C362.763 73.3703 362.771 73.0158 362.873 72.6832C362.975 72.3506 363.167 72.0528 363.427 71.8229C361.696 66.1696 367.033 65.8797 369.052 63.2705Z" fill="#121E18"/>
<path d="M306.519 92.5516C309.981 87.913 313.731 83.3469 320.367 85.3038C325.199 86.9708 326.281 92.5516 333.421 94.1461C322.386 98.1323 314.597 94.0736 306.519 92.5516Z" fill="#121E18"/>
<path d="M754.474 87.6963L761.687 97.6257C754.979 96.6835 749.137 103.786 740.627 99.4377C747.767 97.5533 747.19 88.566 754.474 87.6963Z" fill="#121E18"/>
<path d="M494.834 66.4609C499.089 72.9115 504.065 69.505 509.258 67.693C510.484 68.6353 514.812 68.9252 511.927 70.9546C506.157 75.0858 513.514 75.4482 513.225 77.8399C502.984 82.0437 498.224 73.2014 491.588 68.6353C489.857 67.5481 490.434 66.9683 494.834 66.4609Z" fill="#121E18"/>
<path d="M939.901 84.2895C939.937 84.8204 939.937 85.3531 939.901 85.884C945.094 89.218 936.584 93.7841 940.983 97.1906C935.865 98.1505 930.575 97.4129 925.91 95.0887C932.617 93.2043 930.381 81.3904 939.901 84.2895Z" fill="#121E18"/>
<path d="M651.051 80.882C652.854 78.8526 659.057 77.1856 652.277 73.6342C658.913 70.1553 661.004 77.8379 665.981 78.0553C666.918 78.0553 666.918 81.6792 665.981 83.4187C665.043 85.1582 663.168 88.4197 660.427 88.2022C657.687 87.9848 658.985 85.3756 658.768 83.3462C658.119 80.2297 653.648 83.2737 651.051 80.882Z" fill="#121E18"/>
<path d="M373.522 93.5666C371.553 95.4539 369.113 96.7731 366.461 97.3853C363.808 97.9975 361.041 97.8801 358.449 97.0455C359.675 92.7693 365.661 92.1895 365.661 87.0436C365.661 84.2894 368.402 86.0289 369.339 87.0436C370.863 89.131 372.26 91.3093 373.522 93.5666Z" fill="#121E18"/>
<path d="M1139.54 63.9951C1140.26 73.5622 1138.17 75.6641 1128.07 76.2439L1139.54 63.9951Z" fill="#121E18"/>
<path d="M889.632 72.041C898.287 72.9832 897.349 78.709 895.474 84.9421C895.474 79.2163 884.8 80.9558 888.262 73.2007C888.327 72.8804 888.497 72.5916 888.746 72.3811C888.995 72.1706 889.307 72.0508 889.632 72.041Z" fill="#121E18"/>
<path d="M314.385 99.5829C315.539 99.5829 316.981 98.8581 317.702 99.5829C320.443 101.322 324.915 99.0755 326.285 103.497C326.285 104.294 327.655 106.251 324.843 106.106C320.227 106.033 315.25 106.033 314.385 99.5829Z" fill="#121E18"/>
<path d="M831.069 82.4779C833.521 80.3036 832.872 74.5778 838.281 76.3173C840.084 76.9696 842.031 79.7237 841.094 81.1008C838.497 84.2898 834.747 83.4926 831.069 82.4779Z" fill="#121E18"/>
<path d="M889.633 72.0406L888.262 73.2003C878.67 72.6929 881.627 66.5323 882.925 61.1689L884.512 63.1258C885.594 66.1699 889.128 64.5754 890.787 66.5323C891.363 68.3442 891.219 69.214 888.983 70.0837C884.8 71.6782 889.344 71.3158 889.633 72.0406Z" fill="#121E18"/>
<path d="M858.256 73.4901L862.007 71.5332C864.675 71.5332 867.56 71.5332 867.776 74.9397C867.993 78.3461 864.747 77.0415 863.233 77.8388C859.05 80.1581 859.915 75.3021 858.256 73.4901Z" fill="#121E18"/>
<path d="M822.198 64.5033C822.198 62.3289 819.096 59.7197 823.063 58.0527C824.217 57.4729 823.063 54.7188 825.371 55.2261C827.679 55.7334 828.472 56.7481 827.967 58.1252C826.669 61.4592 831.357 63.3436 829.482 66.5326C827.102 64.7932 825.371 61.6041 822.198 64.5033Z" fill="#121E18"/>
<path d="M1106.43 75.8815C1111.27 79.9403 1112.35 66.8217 1117.47 73.3448C1118.41 74.5044 1118.84 76.6788 1117.47 76.9687C1113.86 77.6934 1109.97 79.9403 1106.43 75.8815Z" fill="#121E18"/>
<path d="M870.954 56.0956C873.19 55.7332 870.954 50.7322 874.92 52.2542C878.887 53.7763 877.517 56.7478 877.228 59.502L873.767 61.6039C868.646 61.8938 868.79 59.502 870.954 56.0956Z" fill="#121E18"/>
<path d="M428.189 77.041C423.718 79.5777 420.977 83.3465 416.578 80.375C416.073 80.0126 416.001 78.9254 415.784 78.2006C419.246 77.041 422.492 73.9245 428.189 77.041Z" fill="#121E18"/>
<path d="M697.782 103.642C701.604 101.468 704.273 104.657 707.518 104.294C710.764 103.932 709.97 106.324 709.466 107.991C708.961 109.658 706.653 110.093 705.282 109.295C702.664 107.575 700.158 105.687 697.782 103.642Z" fill="#121E18"/>
<path d="M815.42 70.5191C816.141 70.5191 817.295 70.1567 817.584 70.5191C819.314 72.476 823.425 72.5484 822.921 76.0999C822.921 78.0568 820.396 77.5494 818.593 77.2595C813.905 76.4623 814.699 73.4182 815.564 70.0117L815.42 70.5191Z" fill="#121E18"/>
<path d="M1074.63 80.2309C1077.44 80.2309 1081.84 79.3612 1077.58 84.3621C1076 86.2466 1078.09 87.2612 1078.16 88.7833C1075.35 91.1751 1073.33 88.7833 1070.95 87.6961L1069.36 86.9713C1068.71 86.9713 1068.57 86.3915 1068.71 86.1016C1068.78 85.9831 1068.87 85.882 1068.99 85.8065C1069.1 85.731 1069.23 85.6831 1069.36 85.6667C1071.09 83.7823 1075.06 83.9997 1074.63 80.0859V80.2309Z" fill="#121E18"/>
<path d="M908.741 35.1495C908.559 30.9463 909.559 26.7767 911.626 23.1182C914.727 25.6549 913.717 28.7714 913.573 31.6705L908.741 35.1495Z" fill="#121E18"/>
<path d="M1053.64 73.418C1054.65 77.4767 1058.83 74.8675 1062 76.462C1057.1 80.3034 1052.48 76.462 1048.45 79.0712C1049.6 76.0272 1050.97 73.9253 1053.93 73.4904L1053.64 73.418Z" fill="#121E18"/>
<path d="M897.997 93.9291L888.477 95.6686C889.703 87.7685 889.703 87.7685 897.997 93.9291Z" fill="#121E18"/>
<path d="M870.952 56.0947C870.751 56.6407 870.666 57.2226 870.7 57.8036C870.735 58.3845 870.89 58.9519 871.154 59.4697C871.419 59.9875 871.787 60.4445 872.237 60.8117C872.686 61.1789 873.206 61.4484 873.765 61.603C872.538 63.7774 871.384 65.8792 868.932 62.8352C867.634 60.0085 863.595 56.3122 870.952 56.0947Z" fill="#121E18"/>
<path d="M988.078 100.742L989.881 99.4376C991.539 98.2779 993.198 98.2055 993.775 100.307C994.713 103.786 991.467 103.351 989.664 104.294C987.933 104.294 985.265 105.526 984.544 103.424C983.822 101.322 986.996 101.539 988.078 100.742Z" fill="#121E18"/>
<path d="M989.884 104.293C991.038 103.206 993.418 102.988 992.769 100.742C992.769 100.089 991.038 99.8719 990.1 99.437C990.518 98.4204 991.229 97.5526 992.141 96.9455C993.054 96.3384 994.126 96.0197 995.221 96.0305C995.726 100.307 996.952 104.945 989.884 104.293Z" fill="#121E18"/>
<path d="M1022.41 78.8533C1022.41 81.1001 1021.32 81.5349 1019.95 81.6799C1018.58 81.8249 1016.42 82.4047 1016.13 79.9404C1016.07 79.6039 1016.08 79.2579 1016.16 78.9257C1016.24 78.5935 1016.4 78.283 1016.61 78.015C1016.82 77.7471 1017.09 77.528 1017.39 77.3725C1017.69 77.217 1018.03 77.1288 1018.37 77.1138C1019.14 76.9616 1019.93 77.0461 1020.65 77.3565C1021.38 77.6668 1021.99 78.1885 1022.41 78.8533Z" fill="#121E18"/>
<path d="M1126.84 61.8928C1130.23 61.8928 1132.4 60.4432 1134.06 62.98C1134.2 63.1376 1134.3 63.3281 1134.35 63.5348C1134.41 63.7416 1134.41 63.9582 1134.36 64.1657C1134.31 64.3732 1134.21 64.5652 1134.07 64.7249C1133.93 64.8846 1133.75 65.0072 1133.55 65.0818C1131.53 66.4589 1129.73 65.3717 1126.84 61.8928Z" fill="#121E18"/>
<path d="M707.954 89.0006C707.377 90.5226 706.872 92.9144 704.78 91.1749C702.689 89.4355 703.41 86.7538 706.223 85.4492C707.232 86.4639 709.18 86.9712 707.954 89.0006Z" fill="#121E18"/>
<path d="M1069.65 85.6667V86.9713C1067.13 87.3337 1064.53 87.6961 1063.38 84.5795C1063.38 84.2171 1064.24 83.2749 1064.96 82.84C1068.42 80.5207 1067.41 85.5942 1069.65 85.6667Z" fill="#121E18"/>
<path d="M707.951 89.0001L706.22 85.4487C709.826 84.0716 711.846 86.101 713.432 88.8552C711.846 91.5368 709.826 88.2753 707.951 89.0001Z" fill="#121E18"/>
<path d="M811.449 68.1997C808.059 64.9382 811.016 62.9088 813.468 59.3574V68.1272L811.449 68.1997Z" fill="#121E18"/>
<path d="M363.497 71.3877V73.6345C364.074 74.0694 364.218 74.3593 364.002 74.5767C363.77 74.666 363.513 74.666 363.281 74.5767C360.973 74.5767 356.934 76.3162 356.79 73.4171C356.79 69.7932 361.405 72.6923 363.497 71.3877Z" fill="#121E18"/>
<path d="M1071.23 87.6963L1078.45 88.7835C1075.49 91.0303 1072.68 93.6395 1071.23 87.6963Z" fill="#121E18"/>
<path d="M900.307 58.8491C898.504 58.3417 896.051 58.1243 896.556 55.5151C896.556 54.0655 898.72 54.138 900.163 54.4279L900.307 58.8491Z" fill="#121E18"/>
<path d="M232.234 95.813C232.102 94.9914 232.149 94.1509 232.373 93.3498C232.598 92.5487 232.993 91.8063 233.532 91.1744C234.207 90.8875 234.953 90.8101 235.673 90.9521C236.392 91.0942 237.053 91.4492 237.571 91.9716C237.787 92.2514 237.904 92.5957 237.904 92.9501C237.904 93.3044 237.787 93.6487 237.571 93.9285C236.901 94.6553 236.064 95.2068 235.134 95.5352C234.204 95.8636 233.209 95.9589 232.234 95.813Z" fill="#121E18"/>
<path d="M363.495 74.8674V73.6353C365.153 73.6353 367.678 72.1857 368.183 75.0124C368.183 76.6069 366.596 76.8243 365.226 76.8968L363.495 74.8674Z" fill="#121E18"/>
<path d="M890.786 66.5315C888.19 66.5315 885.017 67.2562 884.512 63.125C887.397 64.647 891.003 63.7048 893.527 66.0966L890.786 66.5315Z" fill="#121E18"/>
<path d="M1064.46 91.5366C1063.95 91.5366 1063.45 91.8992 1063.02 91.5366C1062.58 91.174 1063.02 90.7389 1062.58 90.3039C1062.15 89.8688 1063.59 89.8688 1064.03 90.3039C1064.46 90.7389 1064.31 90.6664 1064.46 91.5366Z" fill="#121E18"/>
<path d="M237.213 93.9288V92.6242C237.213 90.8122 238.511 89.8699 240.458 90.4498C241.285 90.6226 242.043 91.0388 242.633 91.6454C243.224 92.2521 243.622 93.0217 243.776 93.8563L237.213 93.9288Z" fill="#121E18"/>
<path d="M322.818 113.86C324.261 113.86 324.982 114.368 324.549 115.165C324.008 116.032 323.197 116.694 322.241 117.049C321.737 117.049 320.871 116.542 320.15 116.18L322.818 113.86Z" fill="#121E18"/>
<path d="M1122.23 78.6363C1120.93 78.6363 1119.56 78.6363 1119.77 77.0418C1119.99 75.4473 1120.93 75.6647 1121.22 75.8096C1122.09 76.2481 1122.89 76.8095 1123.6 77.4766L1122.23 78.6363Z" fill="#121E18"/>
<path d="M1132.68 56.0234C1131.46 55.5161 1130.95 54.8638 1131.6 53.9941C1132.25 53.1243 1132.83 53.1243 1133.48 52.6895C1133.48 53.4142 1134.56 54.2115 1134.34 54.7188C1134.12 55.2262 1133.19 55.6611 1132.68 56.0234Z" fill="#121E18"/>
<path d="M365.446 77.041C364.858 78.962 363.604 80.6076 361.912 81.6796C358.234 76.4612 365.951 79.9401 365.446 77.041Z" fill="#121E18"/>
<path d="M799.984 101.103C799.047 101.103 797.893 101.103 798.47 99.7264C798.635 99.3433 798.882 99.0017 799.193 98.726C799.505 98.4503 799.874 98.2474 800.273 98.1318C800.778 98.1318 801.931 98.7841 802.004 99.2915C802.364 101.031 800.561 100.669 799.984 101.103Z" fill="#121E18"/>
<path d="M1307.51 42.4697C1308.59 42.4697 1309.09 43.267 1308.81 44.2092C1308.52 45.1514 1307.72 45.1514 1307.65 45.0789C1307.13 44.5501 1306.67 43.9669 1306.28 43.3395L1307.51 42.4697Z" fill="#121E18"/>
<path d="M1074.62 80.085C1073.18 80.085 1071.16 81.2446 1070.87 78.6354C1070.87 78.2005 1071.74 77.1134 1072.32 77.0409C1075.06 76.6785 1074.48 78.6354 1074.41 80.2299L1074.62 80.085Z" fill="#121E18"/>
<path d="M154.489 78.4906C155.715 71.2428 160.98 76.7511 161.702 77.3309C165.164 80.7374 159.538 81.2447 159.033 83.6365C158.528 86.0282 156.797 86.9704 155.355 84.1438C154.774 82.3165 154.482 80.4089 154.489 78.4906Z" fill="#121E18"/>
<path d="M154.483 78.4902C156.791 79.5049 153.906 84.8683 158.883 83.6362C159.316 85.4481 158.883 86.9701 157.152 87.6224C155.421 88.2747 154.772 86.6802 154.628 85.3756C154.483 84.071 152.175 80.8095 154.483 78.4902Z" fill="#121E18"/>
<path d="M240.674 90.4493L237.428 92.6236L233.534 91.1741C235.769 89.2897 238.005 86.2456 240.674 90.4493Z" fill="#121E18"/>
</svg>
