<svg width="25" height="25" viewBox="0 0 25 25" fill="none" xmlns="http://www.w3.org/2000/svg">
<path d="M18.9228 6.29626H18.9347M7.07992 1.22034H18.3596C21.4744 1.22034 23.9995 3.74539 23.9995 6.86019V18.1399C23.9995 21.2547 21.4744 23.7798 18.3596 23.7798H7.07992C3.96511 23.7798 1.44006 21.2547 1.44006 18.1399V6.86019C1.44006 3.74539 3.96511 1.22034 7.07992 1.22034ZM17.2316 11.7894C17.3709 12.7281 17.2105 13.6869 16.7734 14.5292C16.3363 15.3716 15.6448 16.0547 14.7971 16.4814C13.9494 16.908 12.9887 17.0565 12.0518 16.9058C11.1148 16.755 10.2492 16.3126 9.57818 15.6416C8.90713 14.9705 8.46476 14.1049 8.31399 13.168C8.16322 12.231 8.31173 11.2704 8.7384 10.4227C9.16506 9.57499 9.84816 8.88342 10.6905 8.44633C11.5329 8.00924 12.4916 7.84889 13.4304 7.9881C14.3879 8.13009 15.2745 8.57629 15.959 9.2608C16.6435 9.9453 17.0897 10.8318 17.2316 11.7894Z" stroke="#FFECD3" stroke-width="2" stroke-linecap="round" stroke-linejoin="round"/>
</svg>
