<svg width="62" height="23" viewBox="0 0 62 23" fill="none" xmlns="http://www.w3.org/2000/svg">
<path d="M8.08235 10.6388C8.08235 10.0865 8.53007 9.63879 9.08235 9.63879C9.63464 9.63879 10.0824 10.0865 10.0824 10.6388H8.08235ZM16.7317 8.54759L15.7324 8.5106L16.7317 8.54759ZM14.2268 21.9721L14.2268 20.9721L14.2268 21.9721ZM10.0824 10.6388C10.0824 11.3029 10.3639 11.7106 10.7736 11.9635C11.2237 12.2413 11.9007 12.3669 12.6572 12.2348C14.1391 11.9762 15.6482 10.785 15.7324 8.5106L17.7311 8.58458C17.6076 11.9198 15.2921 13.8051 13.0012 14.2051C11.8713 14.4023 10.6748 14.2528 9.72316 13.6654C8.73099 13.0531 8.08235 12.0055 8.08235 10.6388H10.0824ZM15.7324 8.5106C15.7952 6.8137 15.3682 5.27832 14.3812 4.17692C13.409 3.09199 11.7635 2.28341 9.08235 2.28341V0.283411C12.1796 0.283411 14.4281 1.23233 15.8707 2.8422C17.2985 4.4356 17.807 6.5323 17.7311 8.58458L15.7324 8.5106ZM9.08235 2.28341C6.55693 2.28341 4.83036 3.44712 3.70127 5.03127C2.54648 6.6515 2.02528 8.71208 2.02528 10.366H0.0252762C0.0252762 8.35632 0.643453 5.87564 2.07261 3.87047C3.52748 1.82923 5.82945 0.283411 9.08235 0.283411V2.28341ZM2.02528 10.366C2.02528 12.5517 2.28161 15.1666 3.84876 17.236C5.37444 19.2507 8.32384 20.9721 14.2268 20.9721L14.2268 22.9721C7.93112 22.9721 4.27977 21.118 2.25435 18.4434C0.270395 15.8236 0.0252762 12.6355 0.0252762 10.366H2.02528ZM14.2268 20.9721C24.9636 20.9721 28.0565 20.9723 61.45 20.9721L61.45 22.9721C28.0565 22.9723 24.9635 22.9721 14.2268 22.9721L14.2268 20.9721Z" fill="#FFECD3"/>
</svg>
