<svg width="61" height="23" viewBox="0 0 61 23" fill="none" xmlns="http://www.w3.org/2000/svg">
<path d="M52.3818 10.5284C52.3818 9.97609 51.9341 9.52837 51.3818 9.52837C50.8296 9.52837 50.3818 9.97609 50.3818 10.5284H52.3818ZM43.8676 8.88464L44.8609 8.76876L43.8676 8.88464ZM59.6006 10.8023L60.6006 10.8023L59.6006 10.8023ZM46.0637 21.9612V20.9612V21.9612ZM50.3818 10.5284C50.3818 11.2541 50.0981 11.6747 49.7318 11.923C49.329 12.196 48.7164 12.3294 48.0058 12.2184C46.6007 11.9992 45.1061 10.8704 44.8609 8.76876L42.8744 9.00052C43.2341 12.0837 45.4966 13.851 47.6974 14.1945C48.7896 14.365 49.9422 14.1964 50.8539 13.5786C51.8019 12.936 52.3818 11.8769 52.3818 10.5284H50.3818ZM44.8609 8.76876C44.6199 6.70341 45.2457 5.14724 46.3601 4.09276C47.4973 3.01672 49.2445 2.37044 51.3818 2.37044V0.370436C48.8619 0.370436 46.5781 1.13307 44.9855 2.64003C43.3701 4.16857 42.5674 6.3695 42.8744 9.00052L44.8609 8.76876ZM51.3818 2.37044C53.3178 2.37044 55.1015 3.04833 56.4019 4.39125C57.6993 5.73096 58.6006 7.8214 58.6006 10.8023L60.6006 10.8023C60.6006 7.40781 59.5647 4.78231 57.8387 2.99993C56.1158 1.22077 53.79 0.370436 51.3818 0.370436V2.37044ZM58.6006 10.8023C58.6005 13.8117 57.9128 16.2862 56.1328 18.025C54.3451 19.7712 51.2665 20.9612 46.0637 20.9612V22.9612C51.526 22.9612 55.2158 21.7165 57.5303 19.4556C59.8524 17.1873 60.6005 14.0823 60.6006 10.8023L58.6006 10.8023ZM46.0637 20.9612C40.1385 20.9612 33.581 20.9612 0.0124588 20.9722L0.0131149 22.9722C33.5816 22.9612 40.1388 22.9612 46.0637 22.9612V20.9612Z" fill="#FFECD3"/>
</svg>
