<svg width="182" height="109" viewBox="0 0 182 109" fill="none" xmlns="http://www.w3.org/2000/svg">
<path d="M8.32835 66.6303L1.48462 59.1874L22.2043 56.2627L24.7307 73.8669L3.9544 76.8103L8.32835 66.6303Z" fill="white"/>
<path d="M21.8085 56.7874L24.2028 73.473L4.72742 76.2289L8.64889 67.0987L8.89398 66.5363L8.47921 66.0863L2.44617 59.5246L21.8085 56.7874ZM22.6192 55.7188L0.541992 58.8496V58.8684L7.76279 66.7425L3.18145 77.41V77.4287L25.2586 74.2979L22.6192 55.7188Z" fill="#341F0F"/>
<path d="M14.2861 70.2484L25.2587 74.2792L23.7693 63.1055L14.2861 70.2484Z" fill="#2D1A11"/>
<path d="M81.4224 51.4259L45.9218 51.6696C42.0568 47.1701 39.078 43.4018 35.1377 40.5334C41.7929 40.9271 50.8425 37.7962 58.5157 36.0714C78.9904 31.4594 81.4224 51.4259 81.4224 51.4259Z" fill="#F2BD59"/>
<path d="M45.6013 52.3819L45.3939 52.1381C44.866 51.5195 44.357 50.9383 43.8668 50.3571C40.756 46.7013 38.06 43.5516 34.7229 41.1331L32.7622 39.7083L35.1754 39.8583C39.9453 40.1395 46.0915 38.5459 52.0114 36.9899C54.1229 36.4462 56.3099 35.865 58.3461 35.4151C64.7185 33.9715 70.0539 34.7214 74.2017 37.6273C80.9511 42.3518 82.0635 51.0133 82.12 51.3695L82.2143 52.1569L45.6013 52.3819ZM37.2116 41.2644C39.9453 43.5516 42.302 46.3076 44.9414 49.4384C45.375 49.9446 45.8087 50.4508 46.2423 50.9758L80.5741 50.732C80.1404 48.5385 78.4813 42.3143 73.3721 38.7522C69.5638 36.09 64.6242 35.4151 58.6477 36.7649C56.6304 37.2148 54.5566 37.7585 52.3507 38.3397C47.1661 39.6896 41.7929 41.0957 37.2116 41.2644Z" fill="#2E1A09"/>
<path d="M57.4224 40.9092C59.779 41.1716 62.607 42.5965 65.1145 43.9651C66.585 44.79 68.0556 45.6149 69.3942 46.5335C71.1664 47.7521 73.146 47.4334 74.6542 48.727C75.3518 49.3082 75.9363 49.2895 76.6338 49.8707" fill="white"/>
<path d="M57.4224 40.9081C59.2511 40.8518 61.0422 41.433 62.7013 42.1079C64.3792 42.8016 65.9629 43.6453 67.5277 44.5264C68.3007 44.9764 69.0737 45.4825 69.8089 45.9887C70.4311 46.4387 71.1852 46.7199 72.0336 46.9824C72.8632 47.2448 73.8247 47.5448 74.5788 48.1822C74.7674 48.351 74.937 48.5197 75.069 48.6509C75.2198 48.7822 75.3895 48.9134 75.578 49.0259C75.9551 49.2509 76.3699 49.5133 76.6527 49.8695C76.2568 49.6446 75.842 49.5508 75.3895 49.4383C74.9559 49.3446 74.4468 49.0259 74.1452 48.8197C73.4288 48.426 72.6181 48.276 71.732 48.1072C70.8647 47.9385 69.8844 47.676 69.036 47.1136C68.3195 46.6262 67.5654 46.1762 66.8113 45.7263C65.303 44.8264 63.7571 43.9265 62.2488 43.0641C60.684 42.2204 59.138 41.3955 57.4224 40.9081Z" fill="#432918"/>
<path d="M100.86 51.257L136.361 51.5007C140.226 47.0012 143.205 43.2329 147.145 40.3645C140.49 40.7582 131.44 37.6273 123.767 35.9025C103.292 31.2905 100.86 51.257 100.86 51.257Z" fill="#F2BD59"/>
<path d="M136.681 52.2131H136.342L100.05 51.9694L100.144 51.182C100.182 50.807 101.313 42.1643 108.062 37.4398C112.21 34.5339 117.545 33.784 123.918 35.2276C125.973 35.6962 128.141 36.2587 130.252 36.8024C136.172 38.3584 142.319 39.9708 147.088 39.6708L149.502 39.5208L147.541 40.9456C144.185 43.3641 141.508 46.5325 138.397 50.1883C137.907 50.7695 137.398 51.3695 136.87 51.9694L136.681 52.2131ZM101.69 50.5633L136.022 50.807C136.474 50.2821 136.908 49.7759 137.322 49.2884C139.981 46.1763 142.319 43.4204 145.071 41.1144C140.471 40.9456 135.117 39.5396 129.894 38.1897C127.688 37.6085 125.615 37.0648 123.597 36.6149C117.64 35.265 112.681 35.94 108.873 38.6022C103.783 42.1643 102.142 48.3885 101.69 50.5633Z" fill="#2E1A09"/>
<path d="M105.649 49.7193C106.346 49.1381 106.931 49.1569 107.629 48.5757C109.156 47.2821 111.135 47.6008 112.889 46.3822C114.227 45.4635 115.698 44.6199 117.168 43.8137C119.676 42.4264 122.523 41.0015 124.86 40.7578" fill="white"/>
<path d="M105.649 49.7201C105.913 49.3451 106.328 49.0451 106.705 48.8202C106.893 48.6889 107.044 48.5764 107.195 48.4452C107.327 48.314 107.478 48.1452 107.666 47.9765C108.439 47.3016 109.42 47.0016 110.249 46.7579C111.098 46.5142 111.852 46.2705 112.493 45.858C113.247 45.3706 114.039 44.9019 114.849 44.5082C115.641 44.0957 116.49 43.7583 117.3 43.3833C118.092 42.9896 118.903 42.5959 119.732 42.2397C121.373 41.5273 123.088 40.8898 124.879 40.7773C123.126 41.0961 121.505 41.8647 119.94 42.6709C119.148 43.0833 118.394 43.5145 117.621 43.9645C116.867 44.4332 116.15 44.9769 115.415 45.4643C114.68 45.9705 113.963 46.4579 113.266 46.9829C112.436 47.5828 111.456 47.8828 110.588 48.0703C109.702 48.2577 108.911 48.389 108.213 48.7639L107.629 49.1014C107.402 49.2326 107.157 49.3076 106.931 49.3639C106.478 49.4576 106.064 49.5138 105.649 49.7201Z" fill="#432918"/>
<path d="M117.394 9.20605C115.848 14.9991 116.339 24.2418 116.301 31.7222C116.169 51.6887 92.9794 44.7707 92.9794 44.7707C92.9794 44.7707 78.1984 26.4353 96.4861 18.28C105.177 14.3992 112.587 12.8056 117.394 9.20605Z" fill="#F2BD59"/>
<path d="M101.445 46.6639C96.882 46.6639 93.036 45.539 92.7532 45.464L92.5458 45.4078L92.4138 45.239C92.1122 44.8641 84.9479 35.8276 87.0029 27.3723C88.021 23.1916 91.1129 19.9294 96.2033 17.6609C99.5215 16.1799 102.708 15.0175 105.517 13.9864C110.117 12.2991 114.076 10.8367 116.98 8.68072L118.62 7.44336L118.092 9.41188C116.885 13.8926 116.942 20.4731 116.998 26.8474C117.017 28.5347 117.017 30.1845 117.017 31.7593C116.98 37.2524 115.245 41.302 111.833 43.8142C108.778 46.0077 104.895 46.6639 101.445 46.6639ZM93.3753 44.1516C94.959 44.5829 104.989 47.0201 110.965 42.6331C113.982 40.4021 115.528 36.7462 115.566 31.7218C115.584 30.147 115.566 28.5159 115.547 26.8286C115.49 21.148 115.452 15.28 116.301 10.7805C113.454 12.524 109.947 13.8176 105.988 15.2612C103.198 16.2923 100.031 17.4547 96.7689 18.917C92.0933 20.9981 89.2653 23.9415 88.3604 27.6723C86.6259 34.8527 92.4138 42.8768 93.3753 44.1516Z" fill="#2E1A09"/>
<path d="M92.0181 41.3027C93.9977 40.0841 95.9584 38.8467 97.938 37.7031C99.6348 36.7282 101.332 35.7908 102.991 34.5722C104.254 33.6536 105.46 32.5849 106.648 31.4976C108.665 29.6603 110.777 27.523 111.607 25.4795" fill="white"/>
<path d="M92.0181 41.3019C93.6772 39.9521 95.4305 38.7147 97.1839 37.5148C98.9561 36.315 100.823 35.3026 102.482 34.0652C104.16 32.8654 105.743 31.4405 107.346 30.0719C108.911 28.6658 110.494 27.2973 111.607 25.46C111.041 27.5597 109.57 29.3033 108.119 30.8593C106.629 32.4154 105.083 33.8965 103.33 35.1901C101.558 36.4649 99.6348 37.4586 97.7683 38.4335C95.883 39.4646 93.9977 40.4395 92.0181 41.3019Z" fill="#432918"/>
<path d="M94.5443 31.3839C94.714 30.1841 94.205 29.5466 94.3181 28.3655C94.4312 27.3531 94.582 26.172 94.8083 25.1409C94.9968 24.3535 95.2796 23.1161 95.5624 22.3475C96.0337 21.0164 97.2215 19.629 98.0887 18.8604" fill="white"/>
<path d="M94.5443 31.3843C94.45 30.7844 94.2426 30.3157 94.0352 29.772C93.941 29.4908 93.8279 29.1908 93.7901 28.8721C93.7524 28.5534 93.7524 28.2159 93.7524 27.9347C93.7901 26.7911 93.941 25.6287 94.2238 24.5038C94.3557 23.9414 94.5066 23.3977 94.6951 22.8353C94.8648 22.2916 95.1099 21.6729 95.4681 21.1855C96.1468 20.1731 97.0329 19.3669 98.0887 18.8232C97.4477 19.7981 96.8821 20.7543 96.4484 21.7104C96.0525 22.6291 95.864 23.7352 95.6001 24.8226C95.3361 25.8912 95.1664 26.9598 94.959 28.0659C94.9025 28.3659 94.8459 28.5909 94.8271 28.8346C94.8082 29.0783 94.7894 29.3408 94.8082 29.622C94.8459 30.1844 94.8271 30.8594 94.5443 31.3843Z" fill="#432918"/>
<path d="M62.2488 9.03613C67.3392 12.242 76.351 14.5293 83.5341 16.8352C102.651 22.947 89.0581 42.876 89.0581 42.876C89.0581 42.876 67.0375 51.3688 64.6997 31.5898C63.5874 22.1971 64.2661 14.6792 62.2488 9.03613Z" fill="#F2BD59"/>
<path d="M79.0846 45.407C76.2189 45.407 73.1836 44.882 70.563 43.3072C66.8677 41.095 64.643 37.1767 64.002 31.6648C63.5684 28.0652 63.4176 24.7093 63.2668 21.7284C63.0217 16.8727 62.8143 12.6732 61.6077 9.26111L60.929 7.33008L62.6635 8.41745C66.6038 10.9109 72.9385 12.8232 79.0658 14.6792C80.6872 15.1667 82.2708 15.6541 83.7791 16.1228C89.0392 17.8101 92.395 20.6785 93.7902 24.6531C96.637 32.8834 89.963 42.8198 89.6802 43.2322L89.5482 43.4197L89.3408 43.4947C89.0203 43.6447 84.3636 45.407 79.0846 45.407ZM63.4553 10.536C64.2848 13.7606 64.4545 17.4727 64.6619 21.6534C64.8127 24.5968 64.9824 27.9527 65.3972 31.4961C66.0005 36.558 67.9801 40.1201 71.2794 42.0886C77.6329 45.8944 87.0596 42.801 88.5867 42.2761C89.4728 40.8887 94.8271 32.1147 92.395 25.1405C91.1696 21.6159 88.1154 19.0287 83.3078 17.4914C81.7995 17.004 80.2347 16.5353 78.6133 16.0478C73.1647 14.398 67.5276 12.692 63.4553 10.536Z" fill="#2E1A09"/>
<path d="M89.0579 40.0828C88.3037 38.2267 87.6816 36.352 87.0971 34.4584C86.4938 32.5649 86.0979 30.6151 85.5135 28.7966C84.9479 26.9593 84.1749 25.197 83.383 23.3597C82.9871 22.3848 82.7986 21.3724 82.6101 20.4163C82.4404 19.4602 82.1387 18.579 81.4412 17.8291C81.8748 18.0728 82.2896 18.4103 82.6101 18.8227C82.9306 19.2539 83.1757 19.7226 83.3453 20.1913C83.7224 21.1287 84.0241 22.0286 84.4765 22.8535C85.3815 24.5971 86.2487 26.4344 86.8332 28.3841C87.4176 30.3339 87.7193 32.3024 88.0964 34.2147C88.5111 36.1645 88.8316 38.1143 89.0579 40.0828Z" fill="#432918"/>
<path d="M80.31 34.7218C79.2165 34.1969 78.4435 34.4969 77.3312 34.0282C76.3885 33.6157 75.3139 33.1283 74.3712 32.5846C73.6737 32.1721 72.5802 31.5347 71.9203 31.0285C70.7891 30.1849 69.8087 28.6475 69.3374 27.5977" fill="white"/>
<path d="M80.31 34.7211C79.7067 34.6273 79.1977 34.6836 78.6132 34.7211C78.3304 34.7398 78.0099 34.7398 77.6894 34.6836C77.3689 34.6273 77.0484 34.5336 76.7844 34.4398C75.7098 34.0649 74.6163 33.5774 73.6359 32.9588C73.1458 32.6588 72.6556 32.3588 72.1842 32.0026C71.7129 31.6839 71.2039 31.2527 70.8268 30.7653C70.0727 29.8091 69.5636 28.7217 69.3374 27.5781C70.0727 28.478 70.8268 29.3029 71.6186 29.9966C72.3916 30.634 73.3909 31.159 74.3524 31.7402C75.295 32.3026 76.2754 32.79 77.2746 33.315C77.5386 33.4462 77.746 33.5774 77.9533 33.6712C78.1796 33.7649 78.4247 33.8587 78.7075 33.9337C79.2354 34.0836 79.8764 34.2899 80.31 34.7211Z" fill="#432918"/>
<path d="M94.3557 39.5583C95.3738 37.7773 96.5238 36.09 97.6927 34.4402C98.8616 32.7716 100.087 31.1593 101.331 29.5657C102.595 27.9722 103.877 26.3974 105.215 24.8788C106.554 23.3415 107.93 21.8604 109.419 20.4355C108.401 22.2166 107.27 23.9039 106.082 25.5537C104.914 27.2223 103.688 28.8346 102.444 30.4281C101.181 32.0217 99.8986 33.5778 98.56 35.1151C97.2026 36.6524 95.8263 38.1523 94.3557 39.5583Z" fill="#341F0F"/>
<path d="M93.7524 37.5149C94.9779 36.4838 96.2788 35.5652 97.5985 34.684C98.9182 33.8029 100.276 32.9967 101.633 32.1906C103.009 31.4219 104.405 30.6532 105.819 29.9783C107.233 29.2846 108.684 28.6285 110.211 28.1035C108.986 29.1346 107.685 30.0533 106.365 30.9344C105.046 31.8156 103.688 32.6218 102.331 33.4279C100.954 34.1966 99.5592 34.9652 98.1452 35.6402C96.7124 36.3338 95.2607 36.99 93.7524 37.5149Z" fill="#341F0F"/>
<path d="M96.26 40.3835C96.4485 38.715 96.7502 37.0652 97.1273 35.4529C97.4855 33.8218 97.9191 32.2282 98.3716 30.6347C98.8429 29.0411 99.3331 27.4663 99.9175 25.8915C100.483 24.3354 101.086 22.7793 101.841 21.2607C101.671 22.9293 101.35 24.5791 100.992 26.1914C100.634 27.8225 100.2 29.4161 99.7479 31.0096C99.2765 32.6032 98.7863 34.178 98.2019 35.7528C97.6174 37.3276 96.9953 38.8837 96.26 40.3835Z" fill="#341F0F"/>
<path d="M86.1548 39.5583C84.6654 38.1523 83.2891 36.6524 81.9505 35.1151C80.6119 33.5965 79.3299 32.0217 78.0668 30.4281C76.8225 28.8346 75.597 27.2223 74.4281 25.5537C73.2592 23.9039 72.128 22.2166 71.0911 20.4355C72.5805 21.8416 73.9568 23.3415 75.2953 24.8788C76.6339 26.3974 77.9159 27.9722 79.1791 29.5657C80.4234 31.1593 81.6489 32.7716 82.8178 34.4402C83.9867 36.1087 85.1179 37.796 86.1548 39.5583Z" fill="#341F0F"/>
<path d="M86.7392 37.5149C85.2309 36.99 83.7792 36.3338 82.3464 35.6402C80.9135 34.9465 79.5372 34.1966 78.1609 33.4279C76.8035 32.6405 75.4461 31.8156 74.1263 30.9344C72.8066 30.0533 71.5057 29.1346 70.2803 28.1035C71.8074 28.6285 73.2402 29.2846 74.6731 29.9783C76.1059 30.672 77.4822 31.4219 78.8585 32.1906C80.2159 32.9967 81.5734 33.8029 82.8931 34.684C84.2317 35.5652 85.5326 36.4838 86.7392 37.5149Z" fill="#341F0F"/>
<path d="M84.2504 40.3835C83.4963 38.865 82.893 37.3276 82.3274 35.7528C81.7618 34.1968 81.2716 32.6032 80.7814 31.0096C80.329 29.4161 79.8953 27.8037 79.5371 26.1914C79.1789 24.5604 78.8584 22.9293 78.6887 21.2607C79.4429 22.7793 80.0462 24.3166 80.6118 25.8915C81.1774 27.4475 81.6675 29.0411 82.1577 30.6347C82.6102 32.2282 83.0438 33.8406 83.402 35.4529C83.7414 37.0839 84.0619 38.715 84.2504 40.3835Z" fill="#341F0F"/>
<path d="M90.3211 2.15625C92.3195 7.8181 97.9755 15.1673 102.18 21.3728C113.397 37.9459 90.3211 45.2201 90.3211 45.2201C90.3211 45.2201 67.7349 38.3396 78.1984 21.3728C83.1757 13.3112 88.398 7.83685 90.3211 2.15625Z" fill="#F2BD59"/>
<path d="M90.3212 45.9697L90.1138 45.9135C89.6425 45.7635 78.6133 42.3326 75.5025 34.1961C73.9754 30.184 74.673 25.7408 77.5952 21.0163C79.4994 17.9229 81.4601 15.1858 83.1946 12.7485C86.0226 8.77399 88.4736 5.36188 89.6425 1.93103L90.3023 0L90.981 1.93103C92.527 6.29928 96.3165 11.7174 99.9552 16.9481C100.917 18.3354 101.878 19.6852 102.745 20.9976C105.837 25.5533 106.686 29.8841 105.291 33.8586C102.406 42.0889 90.981 45.7822 90.5097 45.9322L90.3212 45.9697ZM90.3212 4.08703C88.9637 7.12418 86.7956 10.1426 84.3447 13.5734C82.629 15.9919 80.6683 18.7104 78.8018 21.7663C76.1247 26.097 75.4648 30.1278 76.8222 33.7086C79.4428 40.6078 88.7752 44.0012 90.3023 44.5074C91.8671 43.9637 101.52 40.3641 103.971 33.3899C105.215 29.8653 104.405 25.9658 101.577 21.785C100.69 20.4914 99.7478 19.1228 98.7863 17.7542C95.5435 13.086 92.1876 8.2678 90.3212 4.08703Z" fill="#2E1A09"/>
<path d="M90.3399 41.9955C90.0382 39.9707 89.8874 37.9459 89.7932 35.9212C89.68 33.8964 89.6423 31.8716 89.6423 29.8469C89.6612 27.8221 89.68 25.7973 89.7932 23.7725C89.9063 21.7478 90.0571 19.723 90.3399 17.6982C90.6416 19.723 90.7924 21.7478 90.8867 23.7725C90.9998 25.7973 91.0375 27.8221 91.0375 29.8469C91.0186 31.8716 90.9998 33.8964 90.8867 35.9212C90.7924 37.9459 90.6416 39.9707 90.3399 41.9955Z" fill="#341F0F"/>
<path d="M92.0933 40.7398C91.226 39.3899 90.4907 37.9839 89.812 36.5778C89.1145 35.1529 88.4923 33.7093 87.889 32.2658C87.3045 30.8034 86.739 29.3411 86.2488 27.8225C85.7586 26.3227 85.3061 24.8041 84.9856 23.248C85.8528 24.5979 86.5881 26.004 87.2668 27.4101C87.9644 28.8349 88.5866 30.2785 89.1899 31.7221C89.7743 33.1844 90.3399 34.6655 90.8113 36.1653C91.3203 37.6651 91.7728 39.1837 92.0933 40.7398Z" fill="#341F0F"/>
<path d="M88.3416 41.4703C88.6998 39.8205 89.1711 38.227 89.699 36.6521C90.2269 35.0773 90.8113 33.5213 91.4335 31.9839C92.0745 30.4466 92.7155 28.928 93.4508 27.4282C94.1672 25.9284 94.9402 24.4473 95.8452 23.0225C95.4869 24.6723 95.0156 26.2658 94.4877 27.8407C93.9598 29.4155 93.3754 30.9715 92.7532 32.5089C92.1122 34.0462 91.4712 35.5648 90.7359 37.0646C90.0006 38.5644 89.2277 40.0455 88.3416 41.4703Z" fill="#341F0F"/>
<path d="M110.211 49.2881C112.153 48.5944 114.114 48.032 116.075 47.5258C118.036 47.0009 120.034 46.5697 122.014 46.1385C124.012 45.7448 126.01 45.3511 128.028 45.0511C130.045 44.7324 132.062 44.4887 134.117 44.3574C132.175 45.0511 130.215 45.6135 128.254 46.1385C126.293 46.6634 124.295 47.0946 122.315 47.5258C120.317 47.9195 118.318 48.3132 116.301 48.6132C114.284 48.8944 112.266 49.1569 110.211 49.2881Z" fill="#341F0F"/>
<path d="M111.079 47.3389C112.681 47.3389 114.265 47.4701 115.848 47.6388C117.432 47.8076 118.997 48.0513 120.543 48.3325C122.089 48.6325 123.654 48.9324 125.181 49.3261C126.727 49.7011 128.254 50.1323 129.743 50.7135C128.141 50.7135 126.557 50.601 124.973 50.4135C123.39 50.2448 121.844 50.0011 120.279 49.7198C118.733 49.4199 117.168 49.1199 115.641 48.7262C114.114 48.3325 112.587 47.9013 111.079 47.3389Z" fill="#341F0F"/>
<path d="M111.135 51.1255C112.361 49.9631 113.662 48.9133 115 47.9009C116.32 46.8885 117.696 45.9511 119.072 45.0137C120.468 44.0951 121.863 43.2139 123.314 42.389C124.766 41.5641 126.237 40.7579 127.783 40.083C126.557 41.2454 125.256 42.2953 123.937 43.3076C122.617 44.32 121.241 45.2574 119.864 46.1948C118.469 47.0947 117.074 47.9946 115.622 48.8195C114.152 49.6632 112.681 50.4506 111.135 51.1255Z" fill="#341F0F"/>
<path d="M68.4705 50.0007C66.4343 49.7945 64.417 49.4383 62.4186 49.0445C60.4201 48.6508 58.4405 48.1821 56.4609 47.7134C54.4813 47.2073 52.5206 46.6823 50.5787 46.0824C48.6368 45.4825 46.6949 44.845 44.7908 44.0576C46.8458 44.2638 48.8442 44.6201 50.8427 45.0138C52.8411 45.4075 54.8207 45.8762 56.8003 46.3449C58.761 46.851 60.7406 47.376 62.6825 47.9759C64.6432 48.5759 66.5663 49.2133 68.4705 50.0007Z" fill="#341F0F"/>
<path d="M67.6976 48.0136C66.1705 48.5198 64.6245 48.876 63.0785 49.1948C61.5326 49.5135 59.9677 49.7572 58.4029 49.9822C56.8381 50.1884 55.2544 50.3759 53.6708 50.4696C52.0871 50.5821 50.5034 50.6383 48.9009 50.5633C50.428 50.0572 51.974 49.7009 53.5199 49.3822C55.0659 49.0635 56.6307 48.8198 58.1955 48.5948C59.7604 48.3886 61.344 48.2199 62.9277 48.1074C64.4925 47.9949 66.0762 47.9386 67.6976 48.0136Z" fill="#341F0F"/>
<path d="M67.4712 51.8006C65.9441 51.0507 64.5112 50.207 63.0973 49.3071C61.6833 48.426 60.3258 47.4699 58.9684 46.495C57.6298 45.5013 56.3101 44.5077 55.0281 43.4391C53.746 42.3704 52.4829 41.2831 51.314 40.0645C52.8411 40.8144 54.2739 41.658 55.6879 42.5579C57.1019 43.4391 58.4594 44.3952 59.8168 45.3701C61.1554 46.3637 62.4751 47.3574 63.7571 48.426C65.0391 49.4946 66.3023 50.6007 67.4712 51.8006Z" fill="#341F0F"/>
<path d="M131.968 25.5156C128.405 30.3526 125.483 39.1266 122.692 46.1008C119.827 53.2437 116.15 51.5001 111.588 51.5001C104.292 51.5001 96.1846 49.8128 96.1846 49.8128C96.1846 49.8128 89.1524 27.3904 109.156 26.4155C118.677 25.9468 126.18 27.1279 131.968 25.5156Z" fill="#F2BD59"/>
<path d="M115.773 52.3999C115.113 52.3999 114.453 52.3624 113.775 52.3062C113.077 52.2499 112.342 52.2124 111.588 52.2124C104.31 52.2124 96.128 50.5251 96.0526 50.5064L95.6378 50.4126L95.5058 50.0189C95.355 49.5502 91.9991 38.5452 96.9952 31.4211C99.465 27.8965 103.556 25.9654 109.118 25.703C112.757 25.5342 116.15 25.5905 119.148 25.6467C124.031 25.7405 128.273 25.8154 131.761 24.8406L133.74 24.2969L132.515 25.9467C129.743 29.6775 127.387 35.8455 125.105 41.7886C124.502 43.3634 123.918 44.9008 123.333 46.3631C121.278 51.575 118.639 52.3999 115.773 52.3999ZM111.606 50.8063C112.398 50.8063 113.152 50.8626 113.888 50.9001C117.357 51.125 119.864 51.2938 122.051 45.8382C122.636 44.3758 123.22 42.8385 123.823 41.2824C125.86 35.9768 127.952 30.5024 130.384 26.6029C127.104 27.2028 123.352 27.1278 119.148 27.0528C116.169 26.9966 112.813 26.9403 109.212 27.1091C104.103 27.3528 100.389 29.0776 98.183 32.2272C94.073 38.0578 96.2222 47.2067 96.769 49.2128C98.5035 49.5502 105.385 50.8063 111.606 50.8063C111.588 50.8063 111.588 50.8063 111.606 50.8063Z" fill="#2E1A09"/>
<path d="M48.7498 25.2725C52.313 30.1094 55.2353 38.8834 58.0256 45.8576C60.8158 52.8131 66.6603 51.407 71.0909 51.5194C78.5002 51.7069 84.5332 49.5697 84.5332 49.5697C84.5332 49.5697 91.5655 27.1472 71.5622 26.1724C62.0413 25.7037 54.5566 26.8848 48.7498 25.2725Z" fill="#F2BD59"/>
<path d="M67.358 52.2692C63.6627 52.2692 59.5716 51.6505 57.3657 46.1199C56.7813 44.6576 56.1968 43.1203 55.5935 41.5455C53.3123 35.6024 50.9556 29.4343 48.1842 25.7035L46.9587 24.0537L48.9383 24.5974C52.4262 25.5723 56.6493 25.4973 61.5512 25.4036C64.5488 25.3473 67.9424 25.2911 71.5811 25.4598C77.1616 25.741 81.234 27.6533 83.7037 31.1779C88.6998 38.3021 85.344 49.3071 85.1931 49.7758L85.08 50.1132L84.7407 50.2257C84.4956 50.3194 78.5002 52.363 71.0532 52.213C70.3933 52.1942 69.6958 52.213 68.9793 52.2317C68.4703 52.2505 67.9236 52.2692 67.358 52.2692ZM50.3523 26.3597C52.7844 30.2593 54.8771 35.7336 56.9133 41.0393C57.5166 42.5953 58.101 44.1327 58.6855 45.595C60.8724 51.0319 64.9825 50.9381 68.9793 50.8256C69.7146 50.8069 70.431 50.7881 71.1286 50.8069C77.3125 50.9569 82.6102 49.4383 83.9677 49.0258C84.4767 47.1323 86.7014 37.8896 82.5725 32.0028C80.3667 28.8532 76.6526 27.1284 71.5434 26.8846C67.9613 26.7159 64.5865 26.7722 61.6077 26.8284C57.3657 26.8846 53.6328 26.9596 50.3523 26.3597Z" fill="#2E1A09"/>
<path d="M80.0652 45.426C78.1987 44.5449 76.4265 43.57 74.6731 42.5388C72.9198 41.5077 71.2042 40.4203 69.4885 39.3142C67.7917 38.1893 66.1138 37.0457 64.4735 35.8459C62.8333 34.646 61.2119 33.4086 59.6848 32.04C61.5513 32.9024 63.3235 33.8961 65.0768 34.9272C66.8302 35.9583 68.5458 37.0457 70.2615 38.1518C71.9583 39.2767 73.6362 40.4203 75.2765 41.6389C76.9167 42.8201 78.5381 44.0574 80.0652 45.426Z" fill="#341F0F"/>
<path d="M79.9897 43.2886C78.3872 43.2699 76.8036 43.1012 75.2199 42.8949C73.6551 42.6887 72.0902 42.4075 70.5443 42.1075C68.9983 41.7888 67.4523 41.4326 65.9252 41.0201C64.3981 40.6077 62.871 40.139 61.3816 39.5391C62.9841 39.5578 64.5678 39.7265 66.1515 39.9328C67.7163 40.139 69.2811 40.4202 70.8271 40.7202C72.373 41.0389 73.919 41.3951 75.4461 41.8076C76.9732 42.2388 78.5003 42.6887 79.9897 43.2886Z" fill="#341F0F"/>
<path d="M78.5191 46.7948C77.3313 45.5949 76.2567 44.3201 75.2198 43.0077C74.1828 41.7141 73.2025 40.3643 72.2598 38.9957C71.3172 37.6271 70.3933 36.2398 69.5449 34.8149C68.6777 33.3901 67.867 31.9465 67.1694 30.4092C68.3572 31.609 69.4318 32.8839 70.4688 34.1962C71.5057 35.4898 72.4861 36.8397 73.4287 38.2083C74.3714 39.5769 75.2763 40.9642 76.1436 42.3891C76.992 43.8139 77.8215 45.2762 78.5191 46.7948Z" fill="#341F0F"/>
<path d="M102.896 44.5453C104.423 43.1767 106.045 41.9394 107.685 40.7395C109.325 39.5209 111.003 38.396 112.7 37.2524C114.397 36.1463 116.112 35.0589 117.885 34.0278C119.638 32.9967 121.429 32.003 123.277 31.1406C121.749 32.5092 120.128 33.7466 118.488 34.9464C116.848 36.165 115.17 37.2899 113.473 38.4148C111.776 39.5209 110.06 40.6083 108.288 41.6394C106.535 42.6893 104.763 43.6829 102.896 44.5453Z" fill="#341F0F"/>
<path d="M102.971 42.4263C104.461 41.8264 105.988 41.3577 107.515 40.9452C109.042 40.514 110.588 40.1766 112.134 39.8579C113.68 39.5579 115.245 39.2767 116.809 39.0705C118.374 38.8642 119.958 38.6955 121.579 38.6768C120.09 39.2767 118.563 39.7454 117.036 40.1578C115.509 40.589 113.963 40.9265 112.417 41.2452C110.871 41.5452 109.306 41.8264 107.741 42.0326C106.176 42.2388 104.593 42.4076 102.971 42.4263Z" fill="#341F0F"/>
<path d="M104.442 45.9325C105.14 44.3952 105.97 42.9516 106.818 41.5267C107.666 40.1019 108.59 38.7146 109.533 37.346C110.494 35.9961 111.456 34.6463 112.493 33.3339C113.53 32.0216 114.604 30.7467 115.792 29.5469C115.094 31.0842 114.265 32.5278 113.417 33.9526C112.568 35.3775 111.644 36.7648 110.702 38.1334C109.74 39.4832 108.779 40.8331 107.742 42.1454C106.705 43.4578 105.63 44.7326 104.442 45.9325Z" fill="#341F0F"/>
<path d="M115.773 48.632H66.5095C68.1686 43.5888 71.4868 39.2393 75.8607 36.1647C80.1404 33.1463 85.4193 31.3652 91.1507 31.3652C102.689 31.3652 112.474 38.6019 115.773 48.632Z" fill="#341F0F"/>
<path d="M104.838 48.6316H66.5095C68.1686 43.5884 71.4868 39.2389 75.8607 36.1643C78.3682 35.2269 81.0831 34.7207 83.9299 34.7207C93.5074 34.7207 101.69 40.495 104.838 48.6316Z" fill="#3C2414"/>
<path d="M81.2908 57.5367L45.7902 57.293C41.9252 61.7925 38.9464 65.5608 35.0061 68.4292C41.6613 68.0355 50.7109 71.1664 58.3841 72.8912C78.8588 77.5032 81.2908 57.5367 81.2908 57.5367Z" fill="#F2BD59"/>
<path d="M64.1909 74.2974C62.3244 74.2974 60.326 74.0537 58.2333 73.585C56.1783 73.1163 54.0101 72.5538 51.8986 72.0101C45.9598 70.4541 39.8325 68.8605 35.0626 69.1417L32.6494 69.2917L34.6102 67.8669C37.9472 65.4484 40.6432 62.2988 43.754 58.6429C44.2442 58.0617 44.7532 57.4618 45.2811 56.8619L45.4885 56.6182H45.8278L82.1204 56.8619L82.0261 57.6493C81.9884 58.0243 80.8572 66.667 74.1077 71.3915C71.2986 73.3037 67.9804 74.2974 64.1909 74.2974ZM37.0799 67.6981C41.6801 67.8669 47.0344 69.273 52.2568 70.6228C54.4626 71.204 56.5365 71.7477 58.5538 72.1976C64.5114 73.5475 69.4698 72.8725 73.2782 70.2104C78.3686 66.6483 80.0276 60.424 80.4801 58.2305L46.1483 57.9868C45.6959 58.5117 45.2622 59.0179 44.8475 59.5241C42.1515 62.655 39.8137 65.4109 37.0799 67.6981Z" fill="#2E1A09"/>
<path d="M76.5025 59.0928C75.8049 59.674 75.2205 59.6552 74.5229 60.2364C72.9958 61.53 71.0162 61.2113 69.2628 62.4299C67.9243 63.3485 66.4537 64.1922 64.9831 64.9983C62.4757 66.3857 59.6288 67.8105 57.291 68.0542" fill="white"/>
<path d="M76.502 59.0928C76.2381 59.4677 75.8233 59.7677 75.4463 59.9927C75.2577 60.1239 75.1069 60.2364 74.9561 60.3676C74.8241 60.4989 74.6733 60.6676 74.4848 60.8363C73.7118 61.5112 72.7314 61.8112 71.9019 62.0549C71.0535 62.2986 70.2993 62.5424 69.6583 62.9548C68.9042 63.4423 68.1124 63.911 67.3017 64.3047C66.5098 64.7171 65.6614 65.0546 64.8507 65.4295C64.0589 65.8232 63.2482 66.2169 62.4187 66.5731C60.7784 67.2856 59.0628 67.923 57.2717 68.0355C59.0251 67.7168 60.6465 66.9481 62.2113 66.1419C63.0031 65.7295 63.7572 65.2983 64.5302 64.8483C65.2844 64.3796 66.0008 63.836 66.7361 63.3485C67.4713 62.8423 68.1878 62.3549 68.8853 61.8299C69.7149 61.23 70.6952 60.9301 71.5625 60.7426C72.4486 60.5551 73.2404 60.4239 73.938 60.0489L74.5225 59.7114C74.7487 59.5802 74.9938 59.5052 75.22 59.449C75.6725 59.3552 76.0873 59.299 76.502 59.0928Z" fill="#432918"/>
<path d="M100.691 57.7242L136.192 57.4805C140.057 61.98 143.035 65.7483 146.976 68.6167C140.32 68.223 131.271 71.3539 123.598 73.0787C103.123 77.6907 100.691 57.7242 100.691 57.7242Z" fill="#F2BD59"/>
<path d="M117.791 74.4843C113.982 74.4843 110.683 73.5094 107.893 71.5596C101.143 66.8352 100.031 58.1737 99.9744 57.8175L99.8801 57.0301L136.512 56.7676L136.719 57.0113C137.247 57.63 137.756 58.2112 138.247 58.8111C141.357 62.4669 144.034 65.6166 147.39 68.035L149.351 69.4599L146.938 69.3099C142.168 69.0099 136.022 70.6222 130.102 72.1783C127.99 72.722 125.803 73.3032 123.767 73.7531C121.656 74.2406 119.657 74.4843 117.791 74.4843ZM101.539 58.4361C101.973 60.6296 103.632 66.8539 108.741 70.416C112.55 73.0782 117.489 73.7344 123.466 72.4033C125.483 71.9533 127.557 71.4097 129.763 70.8285C134.985 69.4599 140.339 68.0725 144.939 67.9038C142.206 65.6166 139.868 62.8606 137.21 59.7485C136.776 59.2423 136.342 58.7361 135.89 58.2112L101.539 58.4361Z" fill="#2E1A09"/>
<path d="M124.729 68.2046C122.373 67.9422 119.545 66.5173 117.037 65.1487C115.567 64.3238 114.096 63.4989 112.757 62.5803C110.985 61.3617 109.006 61.6804 107.497 60.3868C106.8 59.8056 106.215 59.8243 105.518 59.2432" fill="white"/>
<path d="M124.729 68.2046C122.9 68.2609 121.109 67.6797 119.45 67.0048C117.772 66.3111 116.188 65.4675 114.624 64.5863C113.851 64.1364 113.078 63.6302 112.342 63.124C111.72 62.674 110.966 62.3928 110.118 62.1303C109.288 61.8679 108.327 61.5679 107.572 60.9305C107.384 60.7617 107.214 60.593 107.082 60.4618C106.931 60.3305 106.762 60.1993 106.573 60.0868C106.196 59.8618 105.781 59.5994 105.499 59.2432C105.894 59.4681 106.309 59.5619 106.762 59.6744C107.195 59.7681 107.704 60.0868 108.006 60.293C108.722 60.6867 109.533 60.8367 110.419 61.0055C111.286 61.1742 112.267 61.4367 113.115 61.9991C113.832 62.4865 114.586 62.9365 115.34 63.3864C116.848 64.2863 118.394 65.1862 119.902 66.0486C121.467 66.8923 122.994 67.7172 124.729 68.2046Z" fill="#432918"/>
<path d="M117.225 99.794C115.679 94.0009 116.17 84.7583 116.132 77.2779C116 57.3114 92.8104 64.2294 92.8104 64.2294C92.8104 64.2294 78.0483 82.5648 96.336 90.7201C105.008 94.5821 112.418 96.1944 117.225 99.794Z" fill="#F2BD59"/>
<path d="M118.432 101.575L116.792 100.338C113.888 98.163 109.929 96.7194 105.329 95.0321C102.52 94.001 99.3335 92.8386 96.0153 91.3575C90.925 89.089 87.833 85.8082 86.815 81.6462C84.7599 73.1909 91.9242 64.1544 92.2258 63.7795L92.3578 63.6107L92.5652 63.5545C93.0554 63.4045 104.575 60.0486 111.626 65.223C115.019 67.7165 116.773 71.7848 116.81 77.2779C116.829 78.8527 116.81 80.5025 116.792 82.1898C116.735 88.5641 116.678 95.1446 117.885 99.6253L118.432 101.575ZM93.2251 64.8293C92.2635 66.1042 86.4756 74.147 88.2101 81.3087C89.115 85.0395 91.943 87.9829 96.6186 90.0639C99.8991 91.5263 103.048 92.6886 105.838 93.7198C109.797 95.1821 113.304 96.457 116.151 98.2005C115.302 93.701 115.359 87.8329 115.396 82.1524C115.415 80.4838 115.415 78.834 115.415 77.2592C115.378 72.2347 113.832 68.5602 110.815 66.3479C104.839 61.9609 94.8087 64.3981 93.2251 64.8293Z" fill="#2E1A09"/>
<path d="M91.8862 67.6602C93.8658 68.8788 95.8266 70.1161 97.8062 71.2598C99.503 72.2346 101.2 73.172 102.859 74.3906C104.122 75.3093 105.329 76.3779 106.516 77.4653C108.534 79.3026 110.645 81.4398 111.475 83.4834" fill="white"/>
<path d="M91.8862 67.6602C93.8658 68.5226 95.7512 69.4975 97.6176 70.5098C99.4841 71.5035 101.407 72.4784 103.179 73.7532C104.952 75.0656 106.498 76.5279 107.968 78.084C109.42 79.64 110.871 81.3836 111.456 83.4834C110.344 81.6461 108.76 80.2775 107.195 78.8714C105.593 77.5028 104.009 76.0967 102.331 74.8781C100.672 73.6407 98.8242 72.6283 97.0332 71.4285C95.2798 70.2474 93.5453 69.01 91.8862 67.6602Z" fill="#432918"/>
<path d="M94.4127 77.5781C94.5824 78.778 94.0734 79.4154 94.1865 80.5965C94.2996 81.6089 94.4504 82.79 94.6767 83.8212C94.8652 84.6086 95.148 85.8459 95.4308 86.6146C95.9022 87.9457 97.0899 89.333 97.9572 90.1017" fill="white"/>
<path d="M94.4125 77.5781C94.6953 78.1031 94.6953 78.778 94.6764 79.3404C94.6576 79.6216 94.6764 79.8841 94.6953 80.1278C94.7141 80.3716 94.7896 80.5965 94.8273 80.8965C95.0346 82.0026 95.2232 83.0712 95.4683 84.1399C95.7322 85.2272 95.9396 86.3334 96.3167 87.252C96.7503 88.2269 97.3159 89.1643 97.9569 90.1392C96.92 89.5955 96.0339 88.7893 95.3363 87.777C94.9781 87.2895 94.733 86.6708 94.5633 86.1271C94.3748 85.5647 94.224 85.021 94.092 84.4586C93.8092 83.3337 93.6584 82.1714 93.6207 81.0277C93.6018 80.7653 93.6018 80.4278 93.6584 80.0903C93.6961 79.7716 93.8092 79.4717 93.9035 79.1904C94.1108 78.628 94.3182 78.1593 94.4125 77.5781Z" fill="#432918"/>
<path d="M62.0793 99.9638C67.1697 96.758 76.1816 94.4707 83.3647 92.1647C102.482 86.0529 88.8887 66.124 88.8887 66.124C88.8887 66.124 66.8681 57.6124 64.5303 77.4102C63.4179 86.8028 64.0966 94.3207 62.0793 99.9638Z" fill="#F2BD59"/>
<path d="M60.7407 101.651L61.4194 99.7198C62.626 96.3264 62.8334 92.1269 63.0785 87.2524C63.2294 84.2715 63.399 80.9157 63.8138 77.3161C64.4737 71.8042 66.6795 67.8859 70.3747 65.6737C77.8595 61.1929 88.6813 65.28 89.1337 65.4675L89.3411 65.5424L89.4731 65.7299C89.7559 66.1424 96.4299 76.0787 93.5831 84.309C92.2068 88.2836 88.8321 91.152 83.572 92.8393C82.0638 93.3268 80.4801 93.7954 78.8587 94.3016C72.7314 96.1577 66.3967 98.0887 62.4564 100.563L60.7407 101.651ZM78.8776 65.0175C76.2381 65.0175 73.4667 65.4862 71.11 66.8923C67.8107 68.8796 65.8311 72.4417 65.2278 77.4848C64.813 81.0282 64.6434 84.384 64.4925 87.3274C64.2851 91.527 64.0966 95.239 63.2859 98.4637C67.3582 96.3077 72.9953 94.6016 78.4628 92.9518C80.0653 92.4643 81.649 91.9769 83.1573 91.5082C87.9648 89.9709 91.0191 87.4024 92.2445 83.8591C94.6766 76.8661 89.3223 68.0922 88.4362 66.7236C87.4746 66.3674 83.3646 65.0175 78.8776 65.0175Z" fill="#2E1A09"/>
<path d="M88.9263 68.8604C88.3419 71.0913 87.7574 73.3411 87.2484 75.5533C86.8148 77.4469 86.4377 79.3404 85.759 81.2902C85.25 82.7713 84.5901 84.2336 83.8925 85.6772C82.7236 88.1332 81.3285 90.7954 79.594 92.1827" fill="white"/>
<path d="M88.9265 68.8604C88.7003 70.9976 88.3232 73.0786 87.9273 75.1596C87.5314 77.2219 87.1731 79.3404 86.4756 81.4214C85.7591 83.4837 84.7976 85.396 83.7607 87.2707C82.7049 89.108 81.4606 91.0203 79.6318 92.2014C81.0647 90.6079 81.9131 88.6956 82.7803 86.7833C83.6099 84.8523 84.496 82.9212 85.1558 80.9715C85.8346 79.0217 86.2493 76.9594 86.8715 74.9159C87.4559 72.8724 88.1158 70.8476 88.9265 68.8604Z" fill="#432918"/>
<path d="M80.1786 74.2412C79.0851 74.7662 78.3122 74.4662 77.1998 74.9349C76.2572 75.3473 75.1825 75.8348 74.2399 76.3785C73.5423 76.7909 72.4488 77.4283 71.7889 77.9345C70.6578 78.7782 69.6774 80.3155 69.2061 81.3654" fill="white"/>
<path d="M80.1786 74.2409C79.745 74.6534 79.1229 74.8783 78.5761 75.0096C78.3122 75.0846 78.0671 75.1783 77.822 75.272C77.5957 75.3658 77.4072 75.497 77.1433 75.6282C76.144 76.1532 75.1825 76.6406 74.221 77.2031C73.2595 77.7842 72.2603 78.2904 71.4873 78.9466C70.6955 79.6403 69.9413 80.4839 69.2061 81.3651C69.4134 80.2215 69.9225 79.1341 70.6955 78.178C71.0537 77.6905 71.5816 77.2781 72.0529 76.9406C72.5242 76.6031 73.0144 76.2844 73.5046 75.9845C74.485 75.3658 75.5784 74.8783 76.6531 74.5034C76.8982 74.4096 77.2375 74.3159 77.558 74.2596C77.8785 74.2034 78.199 74.2034 78.4818 74.2221C79.0663 74.2784 79.5753 74.3346 80.1786 74.2409Z" fill="#432918"/>
<path d="M94.2051 69.4043C95.6945 70.8104 97.0708 72.3102 98.4094 73.8475C99.7479 75.3661 101.03 76.9409 102.293 78.5345C103.537 80.1281 104.763 81.7404 105.932 83.4089C107.101 85.0587 108.232 86.7461 109.269 88.5271C107.779 87.121 106.403 85.6212 105.065 84.0839C103.726 82.5653 102.444 80.9905 101.181 79.3969C99.9365 77.8033 98.711 76.191 97.5421 74.5225C96.3732 72.8539 95.242 71.1666 94.2051 69.4043Z" fill="#341F0F"/>
<path d="M93.6208 71.4473C95.1291 71.9722 96.5808 72.6284 98.0137 73.322C99.4465 74.0157 100.823 74.7656 102.199 75.5343C103.557 76.3217 104.914 77.1466 106.234 78.0278C107.553 78.9089 108.854 79.8275 110.08 80.8587C108.553 80.3337 107.12 79.6776 105.687 78.9839C104.254 78.2902 102.878 77.5403 101.502 76.7716C100.144 75.9655 98.7866 75.1593 97.4669 74.2782C96.1283 73.397 94.8463 72.4784 93.6208 71.4473Z" fill="#341F0F"/>
<path d="M96.1284 68.5791C96.8825 70.0977 97.4859 71.635 98.0515 73.2098C98.6171 74.7659 99.1072 76.3594 99.5974 77.953C100.05 79.5466 100.484 81.1589 100.842 82.7712C101.2 84.4023 101.52 86.0333 101.69 87.7019C100.936 86.1833 100.333 84.646 99.7671 83.0712C99.2015 81.5151 98.7113 79.9215 98.2211 78.328C97.7686 76.7344 97.335 75.1221 96.9768 73.5098C96.6186 71.8787 96.2981 70.2477 96.1284 68.5791Z" fill="#341F0F"/>
<path d="M85.9854 69.4229C84.9673 71.2039 83.8173 72.8912 82.6484 74.541C81.4795 76.2096 80.254 77.8219 79.0097 79.4155C77.7465 81.009 76.4645 82.5838 75.1259 84.1024C73.7873 85.6397 72.411 87.1208 70.9216 88.5457C71.9397 86.7646 73.0709 85.0773 74.2587 83.4275C75.4276 81.7589 76.653 80.1466 77.8973 78.5531C79.1605 76.9595 80.4425 75.4034 81.7811 73.8661C83.1197 72.3475 84.496 70.8477 85.9854 69.4229Z" fill="#341F0F"/>
<path d="M86.5888 71.4658C85.3633 72.4969 84.0624 73.4156 82.7427 74.2967C81.423 75.1779 80.0655 75.984 78.7081 76.7902C77.3318 77.5589 75.9367 78.3275 74.5227 79.0024C73.1087 79.6961 71.657 80.3523 70.1299 80.8772C71.3553 79.8461 72.6562 78.9274 73.9759 78.0463C75.2957 77.1651 76.6531 76.359 78.0105 75.5528C79.3868 74.7842 80.782 74.0155 82.196 73.3406C83.61 72.6657 85.0617 72.0095 86.5888 71.4658Z" fill="#341F0F"/>
<path d="M84.0813 68.5977C83.8928 70.2662 83.5911 71.916 83.214 73.5283C82.8558 75.1594 82.4222 76.753 81.9697 78.3465C81.4984 79.9401 81.0082 81.5149 80.4238 83.0897C79.8582 84.6458 79.2549 86.2019 78.5007 87.7205C78.6704 86.0519 78.9909 84.4021 79.3491 82.7898C79.7073 81.1587 80.141 79.5651 80.5934 77.9716C81.0648 76.378 81.555 74.8032 82.1394 73.2284C82.7239 71.6723 83.3272 70.1162 84.0813 68.5977Z" fill="#341F0F"/>
<path d="M90.1516 106.826C92.1501 101.164 97.8061 93.8145 102.01 87.609C113.228 71.0359 90.1516 63.7617 90.1516 63.7617C90.1516 63.7617 67.5654 70.6234 78.029 87.609C83.0063 95.6893 88.2286 101.164 90.1516 106.826Z" fill="#F2BD59"/>
<path d="M90.1517 109L89.4918 107.069C88.3229 103.657 85.872 100.226 83.044 96.2515C81.3095 93.8142 79.3488 91.0771 77.4446 87.9837C74.5223 83.2592 73.8248 78.816 75.3519 74.8039C78.4438 66.6674 89.4918 63.2365 89.9632 63.0865L90.1706 63.0303L90.3779 63.1053C90.8681 63.2552 102.274 66.9486 105.159 75.1789C106.554 79.1534 105.687 83.4842 102.614 88.0399C101.728 89.3523 100.785 90.7021 99.8234 92.0707C96.1659 97.3013 92.3764 102.719 90.8304 107.088L90.1517 109ZM90.1517 64.4926C88.6246 64.9988 79.2922 68.3922 76.6716 75.2914C75.3142 78.8722 75.974 82.903 78.6512 87.2337C80.5177 90.2709 82.4784 93.0081 84.1941 95.4266C86.645 98.8574 88.8131 101.876 90.1706 104.913C92.037 100.713 95.3929 95.914 98.6545 91.2458C99.6161 89.8772 100.559 88.5273 101.445 87.2337C104.273 83.0717 105.065 79.1722 103.839 75.6288C101.369 68.6359 91.7165 65.0363 90.1517 64.4926Z" fill="#2E1A09"/>
<path d="M90.1898 67.0039C90.4914 69.0287 90.6422 71.0534 90.7365 73.0782C90.8496 75.103 90.8873 77.1278 90.8873 79.1525C90.8685 81.1773 90.8496 83.2021 90.7365 85.2268C90.6234 87.2516 90.4726 89.2764 90.1898 91.3011C89.8881 89.2764 89.7373 87.2516 89.643 85.2268C89.5299 83.2021 89.4922 81.1773 89.4922 79.1525C89.511 77.1278 89.5299 75.103 89.643 73.0782C89.7373 71.0534 89.8881 69.0287 90.1898 67.0039Z" fill="#341F0F"/>
<path d="M91.9243 68.2412C91.6038 69.816 91.1513 71.3346 90.6611 72.8157C90.1709 74.3155 89.6053 75.7778 89.0397 77.2589C88.4364 78.7213 87.8143 80.1648 87.1167 81.5709C86.4191 82.9958 85.6838 84.3831 84.8354 85.7329C85.156 84.1581 85.6084 82.6396 86.0986 81.1585C86.5888 79.6586 87.1544 78.1963 87.7389 76.7152C88.3422 75.2529 88.9643 73.8093 89.6619 72.4032C90.3218 70.9971 91.057 69.5911 91.9243 68.2412Z" fill="#341F0F"/>
<path d="M88.1724 67.5293C89.0773 68.9541 89.8315 70.4352 90.5479 71.935C91.2832 73.4349 91.9242 74.9534 92.5652 76.4908C93.1685 78.0281 93.7718 79.5841 94.2997 81.159C94.8276 82.7338 95.2989 84.3273 95.6571 85.9772C94.7522 84.5523 93.998 83.0712 93.2627 81.5714C92.5275 80.0716 91.8865 78.553 91.2454 77.0157C90.6421 75.4784 90.0388 73.9223 89.5109 72.3475C89.0019 70.7727 88.5306 69.1791 88.1724 67.5293Z" fill="#341F0F"/>
<path d="M110.042 59.7119C112.097 59.8431 114.114 60.1056 116.132 60.4056C118.149 60.7056 120.147 61.0805 122.146 61.493C124.144 61.9242 126.124 62.3554 128.085 62.8803C130.064 63.3865 132.025 63.9489 133.948 64.6614C131.893 64.5301 129.876 64.2864 127.858 63.9677C125.841 63.6677 123.843 63.2928 121.844 62.8803C119.846 62.4491 117.866 62.0179 115.905 61.493C113.945 60.968 111.984 60.4056 110.042 59.7119Z" fill="#341F0F"/>
<path d="M110.909 61.6617C112.417 61.0993 113.945 60.6681 115.491 60.2744C117.036 59.8807 118.582 59.5807 120.128 59.2807C121.693 59.0183 123.258 58.7558 124.823 58.5871C126.407 58.3996 127.99 58.2871 129.593 58.2871C128.084 58.8495 126.557 59.2807 125.03 59.6744C123.484 60.0682 121.938 60.3681 120.392 60.6681C118.828 60.9306 117.263 61.193 115.698 61.3618C114.114 61.5305 112.531 61.6617 110.909 61.6617Z" fill="#341F0F"/>
<path d="M110.966 57.8555C112.512 58.5304 113.982 59.3178 115.434 60.1615C116.886 60.9864 118.281 61.8863 119.676 62.7861C121.052 63.7235 122.429 64.6609 123.748 65.6733C125.087 66.6857 126.388 67.7356 127.594 68.8979C126.048 68.223 124.578 67.4356 123.126 66.592C121.674 65.7671 120.279 64.8672 118.884 63.9673C117.508 63.0299 116.132 62.0925 114.812 61.0801C113.492 60.0677 112.191 59.0178 110.966 57.8555Z" fill="#341F0F"/>
<path d="M68.3384 58.9619C66.4342 59.7493 64.4923 60.3867 62.5504 60.9867C60.6085 61.5866 58.6478 62.1116 56.6682 62.6177C54.6886 63.1052 52.709 63.5739 50.7106 63.9488C48.7121 64.3425 46.6948 64.6988 44.6587 64.905C46.5629 64.1176 48.5048 63.4801 50.4466 62.8802C52.3885 62.2803 54.3493 61.7553 56.3289 61.2492C58.3084 60.7617 60.288 60.293 62.2865 59.9181C64.2849 59.5244 66.3022 59.1869 68.3384 58.9619Z" fill="#341F0F"/>
<path d="M67.5655 60.9491C65.963 61.0241 64.3604 60.9678 62.7956 60.8554C61.2119 60.7616 59.6471 60.5741 58.0634 60.3679C56.4986 60.1429 54.9338 59.8992 53.3878 59.5805C51.8419 59.2618 50.2959 58.9056 48.7688 58.3994C50.3713 58.3244 51.9739 58.3806 53.5387 58.4931C55.1223 58.5869 56.6872 58.7743 58.2708 58.9806C59.8357 59.2055 61.4005 59.4493 62.9464 59.768C64.4924 60.0867 66.0384 60.4429 67.5655 60.9491Z" fill="#341F0F"/>
<path d="M67.3391 57.1621C66.1702 58.3807 64.9071 59.4868 63.625 60.5367C62.343 61.6053 61.0233 62.6177 59.6847 63.5926C58.3273 64.5675 56.9698 65.5237 55.5558 66.4048C54.1418 67.3047 52.709 68.1483 51.1819 68.8983C52.3508 67.6797 53.614 66.5735 54.896 65.5236C56.178 64.455 57.4977 63.4614 58.8363 62.4678C60.1937 61.4929 61.5512 60.5555 62.9652 59.6556C64.3792 58.7557 65.812 57.8933 67.3391 57.1621Z" fill="#341F0F"/>
<path d="M131.799 83.4651C128.235 78.6281 125.313 69.8542 122.523 62.88C119.657 55.737 115.981 57.4806 111.418 57.4806C104.122 57.4806 96.0152 59.1679 96.0152 59.1679C96.0152 59.1679 88.9829 81.5903 108.986 82.5652C118.507 83.0526 126.011 81.8528 131.799 83.4651Z" fill="#F2BD59"/>
<path d="M133.59 84.7023L131.61 84.1586C128.122 83.1838 123.88 83.2587 118.997 83.3525C115.999 83.4087 112.606 83.465 108.967 83.2962C103.387 83.015 99.3144 81.1027 96.8446 77.5781C91.8485 70.454 95.2043 59.449 95.3552 58.9803L95.4871 58.5866L95.9019 58.4929C95.9773 58.4741 104.16 56.7868 111.437 56.7868C111.437 56.7868 111.437 56.7868 111.456 56.7868C112.191 56.7868 112.926 56.7306 113.643 56.6931C117.244 56.4493 120.656 56.2244 123.22 62.6361C123.805 64.0985 124.408 65.6358 124.992 67.2106C127.274 73.1537 129.63 79.3217 132.402 83.0525L133.59 84.7023ZM123.013 81.8902C125.615 81.8902 128.009 81.9839 130.215 82.3963C127.783 78.4968 125.69 73.0224 123.654 67.7168C123.051 66.1607 122.466 64.6234 121.882 63.1611C119.695 57.7054 117.187 57.8742 113.718 58.0992C112.983 58.1554 112.229 58.1929 111.437 58.1929H111.418C105.234 58.1929 98.3528 59.449 96.5995 59.7865C96.0527 61.7925 93.9035 70.9227 98.0135 76.772C100.219 79.9216 103.933 81.6464 109.043 81.8902C112.625 82.0589 115.999 82.0026 118.978 81.9464C120.373 81.9089 121.712 81.8902 123.013 81.8902Z" fill="#2E1A09"/>
<path d="M48.5991 83.7087C52.1624 78.8717 55.0846 70.0977 57.8749 63.1235C60.6652 56.1681 66.5097 57.5742 70.9402 57.4617C78.3496 57.2742 84.3826 59.4114 84.3826 59.4114C84.3826 59.4114 91.4149 81.8339 71.4116 82.8088C61.8718 83.2962 54.3871 82.1151 48.5991 83.7087Z" fill="#F2BD59"/>
<path d="M46.8081 84.9459L48.0336 83.2961C50.805 79.5653 53.1617 73.3972 55.4429 67.4542C56.0462 65.8793 56.6307 64.342 57.234 62.8797C59.7792 56.5242 64.8318 56.6554 68.8664 56.7679C69.5828 56.7866 70.2804 56.8054 70.9403 56.7866C78.3873 56.6179 84.3827 58.6802 84.6278 58.7739L84.9671 58.8864L85.0802 59.2239C85.2311 59.6925 88.5869 70.6975 83.5908 77.8217C81.121 81.3463 77.0299 83.2773 71.4682 83.5398C67.8295 83.7085 64.4359 83.6523 61.4382 83.596C56.5364 83.5023 52.3133 83.4273 48.8254 84.4022L46.8081 84.9459ZM67.1508 58.1365C63.7195 58.1365 60.4013 58.6989 58.516 63.4046C57.9315 64.867 57.3471 66.4043 56.7438 67.9603C54.7076 73.266 52.6149 78.7404 50.1828 82.6399C53.4633 82.04 57.2151 82.115 61.4382 82.19C64.4171 82.2462 67.7729 82.3024 71.3551 82.1337C76.4643 81.89 80.1784 80.1652 82.3842 77.0155C86.5319 71.1287 84.3072 61.8673 83.7794 59.9925C82.4219 59.5613 77.143 58.0615 70.9403 58.2115C70.2616 58.2302 69.5263 58.2115 68.791 58.1927C68.2631 58.1552 67.6975 58.1365 67.1508 58.1365Z" fill="#2E1A09"/>
<path d="M79.8958 63.5742C78.3686 64.9428 76.7473 66.1802 75.107 67.38C73.4668 68.5986 71.7889 69.7235 70.0921 70.8671C68.3953 71.9733 66.6796 73.0606 64.9074 74.0918C63.1541 75.1229 61.363 76.1165 59.5154 76.9789C61.0425 75.6103 62.6639 74.373 64.3041 73.1731C65.9443 71.9545 67.6223 70.8296 69.3191 69.7048C71.0159 68.5986 72.7315 67.5113 74.5037 66.4801C76.2571 65.4303 78.0481 64.4366 79.8958 63.5742Z" fill="#341F0F"/>
<path d="M79.8203 65.6924C78.3309 66.2923 76.8038 66.761 75.2767 67.1735C73.7496 67.6047 72.2036 67.9421 70.6576 68.2608C69.1117 68.5608 67.5469 68.842 65.982 69.0482C64.4172 69.2545 62.8335 69.4232 61.2122 69.442C62.7016 68.842 64.2287 68.3733 65.7558 67.9609C67.2829 67.5297 68.8289 67.1922 70.3748 66.8735C71.9208 66.5735 73.4856 66.2923 75.0504 66.0861C76.6341 65.8799 78.2178 65.7299 79.8203 65.6924Z" fill="#341F0F"/>
<path d="M78.3497 62.1865C77.6521 63.7238 76.8226 65.1674 75.9742 66.5923C75.1258 68.0171 74.202 69.4044 73.2593 70.773C72.2978 72.1229 71.3363 73.4727 70.2993 74.7851C69.2624 76.0974 68.1878 77.3723 67 78.5721C67.6976 77.0348 68.5271 75.5912 69.3755 74.1664C70.2239 72.7416 71.1477 71.3542 72.0904 69.9856C73.0519 68.6358 74.0134 67.2859 75.0503 65.9736C76.0873 64.6612 77.1619 63.3864 78.3497 62.1865Z" fill="#341F0F"/>
<path d="M102.727 64.4365C104.593 65.3177 106.365 66.2926 108.119 67.3237C109.872 68.3548 111.588 69.4422 113.303 70.5483C115 71.6732 116.678 72.8168 118.318 74.0167C119.959 75.2165 121.58 76.4539 123.107 77.8225C121.241 76.9601 119.468 75.9664 117.715 74.9353C115.962 73.9042 114.246 72.8168 112.53 71.7107C110.834 70.5858 109.156 69.4422 107.516 68.2236C105.875 67.0425 104.273 65.8051 102.727 64.4365Z" fill="#341F0F"/>
<path d="M102.821 66.5732C104.423 66.592 106.007 66.7607 107.59 66.967C109.155 67.1732 110.72 67.4544 112.266 67.7544C113.812 68.0731 115.358 68.4293 116.885 68.8417C118.412 69.2542 119.939 69.7229 121.429 70.3228C119.826 70.3041 118.243 70.1353 116.659 69.9291C115.094 69.7229 113.529 69.4417 111.983 69.1417C110.437 68.823 108.891 68.4668 107.364 68.0543C105.818 67.6231 104.31 67.1544 102.821 66.5732Z" fill="#341F0F"/>
<path d="M104.273 63.0488C105.46 64.2487 106.535 65.5235 107.572 66.8359C108.609 68.1295 109.589 69.4793 110.532 70.8479C111.475 72.2165 112.398 73.6039 113.247 75.0287C114.114 76.4535 114.925 77.8971 115.622 79.4345C114.435 78.2346 113.36 76.9597 112.323 75.6474C111.286 74.3538 110.306 73.0039 109.363 71.6353C108.42 70.2668 107.515 68.8794 106.648 67.4546C105.8 66.0485 104.989 64.5862 104.273 63.0488Z" fill="#341F0F"/>
<path d="M115.641 60.3301H66.3779C68.037 65.3732 71.3552 69.7227 75.7291 72.7974C80.0088 75.8158 85.2877 77.5968 91.0191 77.5968C102.557 77.5968 112.342 70.3414 115.641 60.3301Z" fill="#341F0F"/>
<path d="M104.707 60.3301H66.3779C68.037 65.3733 71.3552 69.7228 75.7291 72.7974C78.2366 73.7348 80.9515 74.241 83.7983 74.241C93.3758 74.241 101.539 68.4479 104.707 60.3301Z" fill="#3C2414"/>
<path d="M157.269 73.8486L159.796 56.2256L180.515 59.169L173.69 66.6119L178.046 76.792L157.269 73.8486Z" fill="white"/>
<path d="M160.191 56.7688L179.554 59.506L173.521 66.0678L173.106 66.5177L173.351 67.0801L177.272 76.2103L157.797 73.4544L160.191 56.7688ZM159.381 55.7002L156.741 74.2418L178.818 77.3727V77.354L174.237 66.6864L181.458 58.8123V58.7936L159.381 55.7002Z" fill="#341F0F"/>
<path d="M166.903 70.2293L156.723 74.2414L158.212 63.3301L166.903 70.2293Z" fill="#2D1A11"/>
<path d="M14.6628 69.6481C13.8898 60.9116 13.4939 56.5434 12.7209 47.8069C64.8502 41.3014 116.338 41.3014 168.468 47.8069C167.695 56.5434 167.299 60.9116 166.526 69.6481C115.697 63.2926 65.4912 63.2926 14.6628 69.6481Z" fill="white"/>
<path d="M167.978 48.2944C167.242 56.5997 166.884 60.743 166.149 69.0483C115.584 62.7678 65.6044 62.7678 15.04 69.0483C14.3047 60.743 13.9465 56.5997 13.2112 48.2944C65.0011 41.8639 116.188 41.8639 167.978 48.2944ZM168.958 47.3196C116.565 40.7391 64.8126 40.7391 12.4194 47.3008C12.3251 47.3196 12.2497 47.4133 12.2685 47.5445C13.0792 56.6372 13.494 61.1742 14.3047 70.2669C65.3782 63.8552 115.848 63.8552 166.922 70.2669C167.714 61.0805 168.128 56.4873 168.958 47.3196Z" fill="#341F0F"/>
<path d="M25.0701 61.981C24.7308 62.1497 24.2783 62.3372 23.7504 62.5059C23.2036 62.6746 22.6192 62.8059 21.997 62.8621C20.5265 63.0121 19.3576 62.7309 18.4526 62.0185C17.5477 61.3061 17.0198 60.1812 16.8501 58.6626C16.737 57.6315 16.8312 56.7128 17.1518 55.9067C17.4723 55.1005 17.9624 54.4444 18.66 53.9382C19.3576 53.4507 20.206 53.1508 21.2052 53.0383C21.6765 52.982 22.1667 52.982 22.6758 53.0383C23.1848 53.0945 23.6184 53.1508 23.9955 53.2445C24.3725 53.3382 24.5799 53.3757 24.5799 53.3945C24.6365 54.2944 24.6742 54.7443 24.7308 55.6442C24.3537 55.6817 24.1652 55.7005 23.7692 55.738C23.543 55.1568 23.411 54.8568 23.1848 54.2944C23.1282 54.2756 23.0151 54.2569 22.8266 54.2381C22.638 54.2194 22.393 54.2006 22.1102 54.1819C21.8085 54.1631 21.5069 54.1819 21.1863 54.2194C20.206 54.3131 19.4707 54.7256 19.0182 55.4567C18.5657 56.1879 18.3961 57.1628 18.528 58.4189C18.66 59.6 19.0371 60.4624 19.6781 61.0248C20.3191 61.5685 21.1298 61.7935 22.1102 61.6998C22.4118 61.6623 22.6946 61.606 22.9963 61.531C23.2979 61.456 23.543 61.381 23.7315 61.3061C23.9201 61.2311 24.052 61.1748 24.1086 61.1561C24.0143 60.2562 23.9766 59.825 23.8824 58.9251C23.3733 58.8688 23.1282 58.8313 22.6192 58.7751C22.5815 58.4751 22.5815 58.3252 22.5438 58.0252C24.052 57.8377 24.8062 57.7627 26.3144 57.5752C26.3521 57.894 26.371 58.0627 26.3898 58.4001C25.9562 58.5501 25.7488 58.6251 25.3152 58.7751C25.4283 59.9375 25.4849 60.5187 25.598 61.6998C25.598 61.7185 25.4283 61.8122 25.0701 61.981Z" fill="#341F0F"/>
<path d="M34.8928 60.6681C34.3461 61.3993 33.3469 61.8117 31.8952 61.943C30.5189 62.0555 29.5008 61.8492 28.8598 61.2868C28.2188 60.7244 27.8229 59.787 27.7098 58.4934C27.5212 56.5811 27.4458 55.625 27.2573 53.7314C26.7482 53.6752 26.5032 53.6377 25.9941 53.5814C25.9564 53.2815 25.9564 53.1315 25.9187 52.8315C27.5966 52.644 28.4262 52.5503 30.1041 52.3816C30.1418 52.7003 30.1418 52.869 30.1795 53.2065C29.6328 53.3565 29.35 53.4502 28.8032 53.6002C28.9729 55.5125 29.0672 56.4686 29.2369 58.3621C29.2934 59.0371 29.4254 59.562 29.6328 59.937C29.8402 60.2932 30.123 60.5556 30.4812 60.6869C30.8394 60.8181 31.3107 60.8556 31.8763 60.7994C32.4796 60.7431 32.951 60.6119 33.2715 60.4057C33.592 60.1994 33.8182 59.8807 33.9313 59.4495C34.0445 59.0183 34.0822 58.4559 34.0067 57.7247C33.8559 55.9062 33.7805 54.9875 33.6108 53.1502C33.0452 53.094 32.7624 53.0565 32.1968 53.0003C32.178 52.7003 32.1591 52.5503 32.1403 52.2503C33.8182 52.0816 34.6478 51.9879 36.3257 51.8379C36.3445 52.1566 36.3634 52.3253 36.4011 52.6628C35.9109 52.8128 35.6658 52.8878 35.1756 53.0378C35.3265 54.8563 35.4019 55.7749 35.5527 57.6122C35.6658 58.9058 35.4396 59.937 34.8928 60.6681Z" fill="#341F0F"/>
<path d="M42.0001 60.1618C42.0189 60.4806 42.0378 60.6493 42.0567 60.9867C40.4918 61.0992 39.7 61.1555 38.1352 61.2867C38.1163 60.968 38.0975 60.7993 38.0786 60.4618C38.5688 60.3118 38.8139 60.2368 39.2852 60.0869C39.059 57.1434 38.9459 55.6624 38.7196 52.7189C38.2106 52.644 37.9655 52.6065 37.4565 52.5502C37.4376 52.2502 37.4188 52.1003 37.3999 51.8003C38.6254 51.6691 39.2475 51.6128 40.473 51.5003C42.6411 54.4063 43.7157 55.8686 45.8462 58.7932C45.6765 56.1686 45.5822 54.8749 45.4125 52.2502C44.9035 52.1753 44.6584 52.1378 44.1494 52.0628C44.1305 51.7628 44.1117 51.6128 44.0928 51.3129C45.6199 51.1816 46.3741 51.1066 47.9012 50.9941C47.92 51.3129 47.9389 51.4816 47.9577 51.819C47.4675 51.969 47.2224 52.0253 46.7323 52.1753C46.9585 55.5686 47.0716 57.2559 47.279 60.6493C46.5626 60.7055 46.1855 60.7243 45.4691 60.7618C43.3575 57.8746 42.2829 56.4498 40.1148 53.5813C40.3033 56.1498 40.3976 57.4434 40.605 60.0119C41.1517 60.0681 41.4345 60.0868 42.0001 60.1618Z" fill="#341F0F"/>
<path d="M49.994 51.9505C49.485 51.8755 49.2399 51.838 48.7308 51.7443C48.712 51.4443 48.712 51.2943 48.6931 50.9943C49.8055 50.9006 50.3711 50.8444 51.4834 50.7506C52.2187 50.7131 52.5957 50.6944 53.331 50.6381C54.7827 50.5632 55.9328 50.9006 56.8 51.6693C57.6673 52.4379 58.1197 53.5628 58.1952 55.0439C58.2517 56.0375 58.082 56.9187 57.7427 57.6686C57.3845 58.4372 56.8566 59.0372 56.1401 59.4684C55.4426 59.8996 54.5942 60.1433 53.6515 60.1995C51.917 60.2933 51.0309 60.3495 49.2964 60.462C49.2776 60.1245 49.2587 59.9746 49.2399 59.6371C49.73 59.5059 49.9751 59.4309 50.4653 59.2809C50.2579 56.375 50.1637 54.9126 49.994 51.9505ZM55.8196 58.0998C56.3287 57.4436 56.5549 56.4875 56.4984 55.2314C56.4418 54.0128 56.1213 53.1129 55.5745 52.5317C55.009 51.9692 54.2548 51.7068 53.3122 51.763C52.6146 51.8005 52.2564 51.8193 51.54 51.8568C51.7096 54.8002 51.8039 56.2812 51.9736 59.2246C52.6523 59.1872 52.9728 59.1684 53.6515 59.1309C54.5753 59.0934 55.3106 58.7372 55.8196 58.0998Z" fill="#341F0F"/>
<path d="M64.9635 57.05C65.3782 57.0313 65.5668 57.0313 65.9815 57.0125C66.0193 58.0811 66.0381 58.6061 66.0758 59.6747C63.2667 59.7684 61.8527 59.8434 59.0435 59.9747C59.0247 59.6372 59.0247 59.4872 59.0058 59.1498C59.496 59.0185 59.7411 58.9435 60.2313 58.8123C60.0993 55.8689 60.0239 54.3878 59.8919 51.4256C59.3829 51.3319 59.1378 51.2944 58.6288 51.2007C58.6099 50.9007 58.6099 50.7507 58.5911 50.4508C60.2124 50.3383 61.0231 50.3008 62.6445 50.207C62.6634 50.5445 62.6634 50.6945 62.6822 51.0319C62.192 51.1632 61.9469 51.2194 61.4379 51.3507C61.5699 54.3128 61.6264 55.7751 61.7584 58.7373C62.9462 58.6811 63.5495 58.6623 64.7372 58.6248C64.8126 57.9874 64.8692 57.6874 64.9635 57.05Z" fill="#341F0F"/>
<path d="M70.7516 50.0012C71.336 49.9637 71.6377 49.9262 72.2221 49.8887C73.6173 53.2445 74.3148 54.9318 75.6911 58.3065C76.1813 58.4002 76.4264 58.4377 76.8977 58.5314C76.8977 58.8689 76.9166 59.0189 76.9166 59.3563C75.2386 59.3938 74.3902 59.4126 72.7123 59.4501C72.7123 59.1126 72.6935 58.9626 72.6935 58.6252C73.2213 58.5127 73.5041 58.4564 74.032 58.3252C73.7869 57.7253 73.6738 57.4253 73.4476 56.8254C71.9393 56.8629 71.1852 56.8816 69.6581 56.9379C69.4507 57.5565 69.3376 57.8565 69.1302 58.4752C69.6769 58.5689 69.9597 58.6064 70.5065 58.7002C70.5253 59.0376 70.5253 59.1876 70.5253 59.5251C68.9228 59.5813 68.131 59.6001 66.5284 59.6563C66.5096 59.3188 66.5096 59.1689 66.4907 58.8314C66.9621 58.7189 67.2072 58.6439 67.6785 58.5314C68.9039 55.1193 69.5072 53.4133 70.7516 50.0012ZM71.4303 51.6885C70.8647 53.357 70.5819 54.1819 70.0163 55.8505C71.2229 55.813 71.8262 55.7942 73.0328 55.7567C72.3729 54.1257 72.0713 53.3195 71.4303 51.6885Z" fill="#341F0F"/>
<path d="M89.0013 58.7937C88.6431 58.9249 88.1906 59.0749 87.625 59.1874C87.0782 59.3186 86.4749 59.3749 85.8339 59.3749C84.3634 59.3936 83.2133 58.9999 82.4026 58.1937C81.5731 57.3876 81.1583 56.2252 81.1395 54.7066C81.1206 53.6755 81.3091 52.7569 81.7051 51.9882C82.101 51.2008 82.6666 50.6009 83.4019 50.1884C84.1371 49.7572 85.0044 49.551 86.0036 49.5322C86.4749 49.5322 86.9651 49.5697 87.4553 49.6822C87.9455 49.7759 88.3791 49.8884 88.7562 50.0197C89.1333 50.1322 89.3218 50.2071 89.3218 50.2071C89.3029 51.107 89.2841 51.557 89.2464 52.4569C88.8693 52.4569 88.6619 52.4569 88.2849 52.4569C88.1152 51.857 88.0209 51.557 87.8512 50.9571C87.7947 50.9383 87.6816 50.9196 87.5119 50.8633C87.3233 50.8258 87.0971 50.7883 86.7955 50.7508C86.4938 50.7133 86.1921 50.6946 85.8716 50.6946C84.8724 50.6946 84.1183 51.0508 83.5904 51.7257C83.0625 52.4006 82.8174 53.3755 82.8174 54.6316C82.8363 55.8315 83.1379 56.7314 83.7224 57.3313C84.3068 57.9313 85.0798 58.2312 86.0602 58.2312C86.3618 58.2312 86.6635 58.1937 86.9651 58.1563C87.2668 58.1 87.5119 58.0438 87.7193 57.9875C87.9266 57.9313 88.0586 57.8938 88.0963 57.875C88.0963 56.9751 88.0963 56.5252 88.0963 55.6253C87.6061 55.5128 87.3422 55.4566 86.852 55.3628C86.852 55.0628 86.852 54.9129 86.852 54.6129C88.3791 54.5754 89.1333 54.5567 90.6604 54.5379C90.6604 54.8754 90.6604 55.0254 90.6604 55.3628C90.2267 55.4753 90.0005 55.5315 89.5669 55.644C89.5669 56.8251 89.5669 57.4063 89.5669 58.5687C89.548 58.5687 89.3595 58.6437 89.0013 58.7937Z" fill="#341F0F"/>
<path d="M94.5254 47.5261C94.695 47.2824 94.9024 47.0949 95.1664 46.9824C95.4303 46.8512 95.6943 46.7949 95.9959 46.7949C96.4484 46.7949 96.8443 46.9449 97.1837 47.2074C97.523 47.4886 97.6927 47.8448 97.6739 48.3135C97.6739 48.651 97.5796 48.9322 97.4099 49.1759C97.2402 49.4196 97.014 49.6071 96.7123 49.7196C97.9944 53.1129 98.6165 54.8003 99.8608 58.2124C100.351 58.3249 100.577 58.3811 101.067 58.4936C101.067 58.831 101.067 58.981 101.049 59.3185C99.3706 59.2997 98.5222 59.281 96.8443 59.2622C96.8443 58.9248 96.8443 58.7748 96.8443 58.4373C97.391 58.3436 97.655 58.2874 98.2017 58.1936C97.9944 57.5937 97.8812 57.275 97.655 56.675C96.1467 56.6563 95.3738 56.6563 93.8655 56.6375C93.6393 57.2375 93.5261 57.5374 93.2811 58.1561C93.8278 58.2686 94.0917 58.3249 94.6385 58.4186C94.6385 58.7561 94.6385 58.906 94.6385 59.2435C93.036 59.2247 92.2441 59.2247 90.6416 59.2247C90.6416 58.8873 90.6416 58.7373 90.6416 58.3998C91.1129 58.2874 91.358 58.2499 91.8294 58.1374C93.1679 54.7628 93.8466 53.0942 95.2041 49.7196C94.9213 49.6071 94.695 49.4196 94.5254 49.1946C94.3557 48.9697 94.2614 48.6885 94.2614 48.351C94.2614 48.051 94.3557 47.7698 94.5254 47.5261ZM95.8262 51.4444C95.2041 53.0942 94.8836 53.9004 94.2614 55.5502C95.468 55.5502 96.0713 55.5689 97.2779 55.5689C96.6935 53.9191 96.4107 53.0942 95.8262 51.4444ZM95.3549 48.9697C95.4869 49.1197 95.6943 49.1946 95.9582 49.1946C96.1844 49.1946 96.3918 49.1197 96.5427 48.9697C96.6935 48.8197 96.7689 48.6135 96.7689 48.351C96.7689 48.0885 96.6935 47.8635 96.5615 47.7136C96.4295 47.5636 96.2222 47.4886 95.9771 47.4886C95.732 47.4886 95.5434 47.5636 95.3926 47.7136C95.2418 47.8635 95.1664 48.0698 95.1664 48.351C95.1475 48.6135 95.2229 48.8197 95.3549 48.9697Z" fill="#341F0F"/>
<path d="M103.085 50.8635C102.595 50.7511 102.331 50.6761 101.841 50.5636C101.841 50.2636 101.841 50.1136 101.86 49.8137C102.972 49.7949 103.537 49.7949 104.669 49.7949C105.31 49.8137 105.63 49.8137 106.29 49.8324C107.327 49.8512 108.138 50.0949 108.703 50.5448C109.269 50.9948 109.552 51.6135 109.533 52.3821C109.495 53.7132 108.835 54.5944 107.553 54.9881C107.779 55.1943 108.062 55.6068 108.402 56.2442C108.835 57.1253 109.061 57.5565 109.495 58.4377C109.91 58.5314 110.117 58.5877 110.513 58.6814C110.494 59.0189 110.494 59.1688 110.494 59.5063C109.627 59.4876 109.193 59.4688 108.326 59.4501C107.855 58.4189 107.629 57.9127 107.157 56.8816C106.931 56.4129 106.742 56.0567 106.573 55.813C106.403 55.588 106.215 55.4193 106.026 55.3255C105.838 55.2318 105.555 55.1943 105.234 55.1756C104.97 55.1756 104.838 55.1756 104.574 55.1568C104.556 56.3942 104.537 57.0128 104.518 58.2315C105.008 58.3439 105.253 58.4189 105.743 58.5314C105.743 58.8689 105.724 59.0189 105.724 59.3563C104.122 59.3188 103.33 59.3001 101.728 59.2813C101.728 58.9439 101.728 58.7939 101.746 58.4564C102.237 58.3627 102.482 58.3064 102.991 58.2127C102.991 55.288 103.028 53.807 103.085 50.8635ZM107.327 53.7882C107.742 53.507 107.949 53.0758 107.968 52.5509C107.987 52.1009 107.817 51.7072 107.478 51.4072C107.138 51.1073 106.705 50.9385 106.158 50.9198C105.536 50.901 105.234 50.901 104.612 50.8823C104.593 52.1946 104.574 52.8508 104.537 54.1632C104.97 54.1632 105.197 54.1819 105.63 54.1819C106.365 54.2194 106.912 54.0694 107.327 53.7882Z" fill="#341F0F"/>
<path d="M112.7 51.1067C112.21 50.9755 111.965 50.9192 111.456 50.788C111.456 50.488 111.474 50.3381 111.474 50.0381C112.587 50.0381 113.152 50.0381 114.265 50.0568C115 50.0756 115.377 50.0943 116.112 50.1318C117.564 50.1881 118.676 50.638 119.468 51.4817C120.26 52.3253 120.599 53.4877 120.543 54.9688C120.505 55.9624 120.26 56.8248 119.845 57.5372C119.431 58.2684 118.827 58.8121 118.092 59.187C117.357 59.562 116.489 59.7307 115.547 59.6932C113.793 59.637 112.926 59.5995 111.192 59.5432C111.211 59.2058 111.21 59.0558 111.21 58.7183C111.701 58.6246 111.965 58.5683 112.455 58.4934C112.568 55.5312 112.606 54.0501 112.7 51.1067ZM117.941 57.7434C118.507 57.1435 118.827 56.2061 118.884 54.95C118.94 53.7127 118.714 52.794 118.205 52.1753C117.696 51.5567 116.98 51.2379 116.018 51.2005C115.321 51.1817 114.962 51.163 114.246 51.1442C114.133 54.1064 114.095 55.5687 113.982 58.5309C114.661 58.5496 114.981 58.5683 115.66 58.5871C116.621 58.6246 117.376 58.3434 117.941 57.7434Z" fill="#341F0F"/>
<path d="M123.182 58.7561C123.314 58.8123 123.503 58.8873 123.729 58.9435C123.955 58.9998 124.219 59.0373 124.502 59.056C125.087 59.0935 125.615 58.981 126.067 58.7561C126.538 58.5311 126.783 58.1749 126.802 57.7249C126.821 57.425 126.727 57.1812 126.557 56.975C126.369 56.7688 126.142 56.6001 125.86 56.4501C125.577 56.3188 125.181 56.1314 124.691 55.9439C124.05 55.6814 123.522 55.4564 123.126 55.2502C122.73 55.044 122.391 54.744 122.127 54.3691C121.863 53.9941 121.731 53.5254 121.769 52.963C121.806 52.0631 122.164 51.3882 122.862 50.9757C123.541 50.5445 124.389 50.3758 125.388 50.4133C125.803 50.432 126.237 50.507 126.689 50.6008C127.142 50.7132 127.538 50.807 127.858 50.9195C128.179 51.032 128.386 51.0882 128.461 51.1257C128.386 52.0443 128.348 52.513 128.254 53.4504C127.877 53.4317 127.688 53.4129 127.293 53.3942C127.123 52.7943 127.047 52.4943 126.878 51.9131C126.84 51.8944 126.746 51.8756 126.595 51.8194C126.444 51.7631 126.256 51.7256 126.029 51.6694C125.803 51.6131 125.558 51.5944 125.332 51.5756C124.71 51.5381 124.219 51.6506 123.861 51.8944C123.503 52.1381 123.333 52.438 123.314 52.813C123.296 53.113 123.39 53.3567 123.578 53.5629C123.767 53.7691 123.993 53.9379 124.295 54.0879C124.578 54.2378 124.992 54.4066 125.501 54.6128C126.124 54.8565 126.633 55.0815 127.029 55.2877C127.424 55.4939 127.745 55.7752 128.009 56.1314C128.273 56.4876 128.386 56.9188 128.367 57.4437C128.329 58.0999 128.122 58.6436 127.764 59.0748C127.406 59.506 126.915 59.8247 126.331 60.0122C125.747 60.1997 125.106 60.2746 124.408 60.2371C123.955 60.2184 123.503 60.1434 123.069 60.0497C122.636 59.9559 122.278 59.8434 121.995 59.7497C121.712 59.656 121.523 59.581 121.448 59.5622C121.486 58.6061 121.523 58.1186 121.561 57.1625C122.032 57.1812 122.259 57.2 122.73 57.2187C122.824 57.7999 122.862 58.0811 122.956 58.6623C122.975 58.6623 123.051 58.6998 123.182 58.7561Z" fill="#341F0F"/>
<path d="M135.871 52.363C135.701 52.3068 135.494 52.2506 135.211 52.1943C134.928 52.1381 134.627 52.1006 134.306 52.0818C133.307 52.0256 132.534 52.3068 131.968 52.9442C131.403 53.5817 131.063 54.5378 130.988 55.7939C130.913 56.975 131.139 57.8749 131.685 58.5123C132.213 59.131 132.949 59.4872 133.91 59.5435C134.363 59.581 134.815 59.5247 135.249 59.3935C135.682 59.2622 136.078 59.1123 136.399 58.9435C136.719 58.7748 136.889 58.6811 136.889 58.6623C137.096 59.0373 137.209 59.2247 137.417 59.581C137.417 59.5997 137.228 59.7309 136.87 59.9559C136.512 60.1809 136.041 60.3871 135.494 60.5558C134.947 60.7246 134.344 60.7996 133.703 60.7621C132.232 60.6683 131.12 60.1996 130.347 59.3372C129.574 58.4748 129.235 57.2937 129.329 55.7752C129.385 54.744 129.649 53.8441 130.083 53.0942C130.535 52.3443 131.139 51.7819 131.893 51.4069C132.666 51.032 133.552 50.882 134.551 50.9382C135.023 50.9757 135.513 51.0507 136.003 51.1819C136.493 51.3132 136.908 51.4632 137.285 51.5944C137.643 51.7444 137.832 51.8194 137.832 51.8381C137.737 52.7568 137.7 53.2254 137.605 54.1441C137.172 54.1066 136.946 54.1066 136.512 54.0691C136.399 53.4317 136.342 53.113 136.229 52.4755C136.135 52.4568 136.041 52.4193 135.871 52.363Z" fill="#341F0F"/>
<path d="M142.62 51.707C143.205 51.7258 143.506 51.7258 144.091 51.7445C145.128 55.2316 145.637 56.9752 146.636 60.481C147.107 60.631 147.352 60.706 147.824 60.8372C147.786 61.1559 147.786 61.3247 147.748 61.6621C146.07 61.5122 145.222 61.4559 143.544 61.3247C143.563 61.006 143.582 60.8372 143.6 60.4998C144.147 60.4435 144.411 60.406 144.958 60.3498C144.788 59.7311 144.694 59.4124 144.524 58.7937C143.016 58.6812 142.262 58.6062 140.754 58.4938C140.49 59.0749 140.339 59.3749 140.075 59.9561C140.603 60.1061 140.886 60.1811 141.414 60.3123C141.395 60.631 141.376 60.7997 141.357 61.1372C139.754 61.0247 138.963 60.9497 137.379 60.856C137.398 60.5373 137.417 60.3685 137.435 60.0311C137.926 59.9561 138.152 59.9186 138.642 59.8623C140.226 56.6002 141.018 54.9692 142.62 51.707ZM143.091 53.4506C142.356 55.0442 141.979 55.8503 141.244 57.4439C142.45 57.5376 143.054 57.5751 144.241 57.6689C143.789 55.9815 143.563 55.1379 143.091 53.4506Z" fill="#341F0F"/>
<path d="M154.988 56.9004C154.95 57.3316 154.932 57.5566 154.875 57.9878C153.536 57.8566 152.858 57.8003 151.519 57.6691C151.406 58.944 151.349 59.5814 151.217 60.875C151.783 61.0437 152.066 61.1187 152.65 61.2874C152.613 61.6061 152.613 61.7749 152.575 62.1123C150.897 61.9624 150.049 61.8874 148.371 61.7374C148.408 61.4187 148.408 61.2499 148.446 60.9125C148.955 60.8375 149.2 60.8187 149.709 60.7437C149.973 57.8003 150.105 56.3193 150.369 53.3758C149.879 53.2259 149.634 53.1509 149.144 53.0009C149.162 52.7009 149.181 52.5509 149.2 52.251C150.312 52.326 150.878 52.3447 151.99 52.4197C153.781 52.5884 154.686 52.6634 156.478 52.8322C156.383 53.7321 156.346 54.182 156.251 55.0819C155.874 55.0444 155.686 55.0257 155.309 54.9882C155.195 54.5195 155.158 54.2757 155.045 53.7883C153.781 53.6758 153.159 53.6008 151.896 53.4883C151.783 54.7069 151.726 55.3256 151.613 56.563C152.99 56.713 153.65 56.7692 154.988 56.9004Z" fill="#341F0F"/>
<path d="M163.208 57.5933C163.151 58.0245 163.132 58.2495 163.095 58.6807C161.756 58.5307 161.077 58.4745 159.739 58.3245C159.607 59.6556 159.531 60.3305 159.399 61.6616C160.738 61.7928 161.398 61.8678 162.736 62.0178C162.906 61.4929 163 61.2116 163.17 60.6867C163.547 60.7242 163.736 60.7429 164.113 60.7804C164 61.7553 163.943 62.2428 163.849 63.2364C160.926 62.9177 159.456 62.7677 156.534 62.4678C156.571 62.149 156.59 61.9803 156.609 61.6428C157.118 61.5866 157.363 61.5491 157.872 61.4929C158.174 58.5494 158.325 57.0871 158.626 54.1437C158.136 53.9937 157.891 53.9 157.401 53.75C157.439 53.45 157.439 53.3001 157.476 53.0001C158.589 53.0751 159.154 53.1313 160.285 53.2063C162.077 53.3938 162.963 53.4875 164.754 53.675C164.659 54.5936 164.603 55.0624 164.49 55.9997C164.113 55.9622 163.924 55.9435 163.547 55.8873C163.453 55.3811 163.415 55.1186 163.321 54.6124C162.058 54.4812 161.436 54.4062 160.172 54.2749C160.059 55.4561 159.984 56.0372 159.871 57.1996C161.19 57.3871 161.869 57.4433 163.208 57.5933ZM160.417 52.0252C161.568 51.3503 162.152 51.0128 163.302 50.3379C163.566 50.7691 163.679 50.9753 163.943 51.4065C162.718 51.969 162.114 52.2502 160.889 52.8126C160.719 52.4939 160.625 52.3439 160.417 52.0252Z" fill="#341F0F"/>
</svg>
